STARTFONT 2.1
FONT -FontForge-ITC Benguiat Gothic Std-Bold-R-Normal--48-460-75-75-P-253-ISO8859-1
SIZE 46 75 75
FONTBOUNDINGBOX 56 56 -8 -12
COMMENT "Generated by fontforge, http://fontforge.sourceforge.net"
COMMENT "Copyright 1990, 1995 , 2002Adobe Systems Incorporated. All Rights Reserved. ITC Benguiat Gothic is a registered trademark of International Typeface Corporation."
STARTPROPERTIES 40
FOUNDRY "FontForge"
FAMILY_NAME "ITC Benguiat Gothic Std"
WEIGHT_NAME "Bold"
SLANT "R"
SETWIDTH_NAME "Normal"
ADD_STYLE_NAME ""
PIXEL_SIZE 48
POINT_SIZE 460
RESOLUTION_X 75
RESOLUTION_Y 75
SPACING "P"
AVERAGE_WIDTH 253
CHARSET_REGISTRY "ISO8859"
CHARSET_ENCODING "1"
FONTNAME_REGISTRY ""
CHARSET_COLLECTIONS "ISOLatin1Encoding"
FONT_NAME "BenguiatGothicStd-Bold"
FACE_NAME "ITC Benguiat Gothic Std Bold"
COPYRIGHT "Copyright 1990, 1995 , 2002Adobe Systems Incorporated. All Rights Reserved. ITC Benguiat Gothic is a registered trademark of International Typeface Corporation."
FONT_VERSION "001.001"
FONT_ASCENT 33
FONT_DESCENT 15
UNDERLINE_POSITION -5
UNDERLINE_THICKNESS 3
X_HEIGHT 23
CAP_HEIGHT 32
RAW_ASCENT 691
RAW_DESCENT 309
NORM_SPACE 15
RELATIVE_WEIGHT 70
RELATIVE_SETWIDTH 50
SUPERSCRIPT_X 0
SUPERSCRIPT_Y 16
SUPERSCRIPT_SIZE 28
SUBSCRIPT_X 0
SUBSCRIPT_Y 3
SUBSCRIPT_SIZE 28
FIGURE_WIDTH 29
AVG_LOWERCASE_WIDTH 246
AVG_UPPERCASE_WIDTH 290
ENDPROPERTIES
CHARS 253
STARTCHAR space
ENCODING 32
SWIDTH 305 0
DWIDTH 15 0
BBX 1 1 0 0
BITMAP
00
ENDCHAR
STARTCHAR exclam
ENCODING 33
SWIDTH 333 0
DWIDTH 16 0
BBX 7 33 4 0
BITMAP
3C
7E
7E
7E
7E
7E
7E
7E
7E
7E
7E
7E
7E
7E
7E
7E
7E
7E
7E
7E
7E
7C
3C
00
00
00
3C
7E
7E
FE
7E
7E
3C
ENDCHAR
STARTCHAR quotedbl
ENCODING 34
SWIDTH 333 0
DWIDTH 16 0
BBX 12 13 2 20
BITMAP
F0F0
F0F0
F9F0
F9F0
F9F0
F9F0
F9F0
F9F0
F9F0
F9F0
F9F0
F1F0
F0F0
ENDCHAR
STARTCHAR numbersign
ENCODING 35
SWIDTH 611 0
DWIDTH 29 0
BBX 24 33 3 0
BITMAP
01F078
01F0F8
01E0F8
01E0F8
01E0F8
03E0F0
03E0F0
03E0F0
03E1F0
03C1F0
7FFFFF
7FFFFF
7FFFFF
7FFFFF
07C1E0
07C3E0
0783E0
0783E0
0783E0
FFFFFC
FFFFFC
FFFFFC
FFFFFC
0F07C0
0F07C0
0F07C0
1F0780
1F0780
1F0780
1F0F80
1E0F80
1E0F80
1E0F80
ENDCHAR
STARTCHAR dollar
ENCODING 36
SWIDTH 611 0
DWIDTH 29 0
BBX 25 41 2 -4
BITMAP
00380000
007C0000
007C0000
007C0000
007C0000
007C0000
007C0000
07FFFC00
1FFFFC00
3FFFFC00
7FFFFC00
FFFFFC00
FE000000
FC000000
FE000000
FFC00000
FFFF0000
7FFFF800
3FFFFE00
0FFFFF00
00FFFF00
007DFF80
007C3F80
007C1F80
007C1F80
007C1F80
007C1F80
007C3F80
007C7F80
7FFFFF00
FFFFFE00
FFFFFC00
FFFFF800
FFFFE000
007C0000
007C0000
007C0000
007C0000
007C0000
007C0000
007C0000
ENDCHAR
STARTCHAR percent
ENCODING 37
SWIDTH 944 0
DWIDTH 45 0
BBX 41 33 2 0
BITMAP
03F000380000
0FFC007C0000
1FFE00FC0000
3FFF00FC0000
7FFF80FC0000
7E1F81F80000
FC1F81F80000
FC0FC3F00000
FC0FC3F00000
FC0FC7E00000
FC1F87E00000
7E1F8FC00000
7FFF8FC00000
3FFF1F800000
1FFE1F800000
0FFC3F000000
03F03F07F000
00007E1FF800
0000FE3FFE00
0000FC7FFF00
0001FC7FFF00
0001F8FE3F80
0003F8FC1F80
0003F0FC1F80
0007F0F81F80
0007E0FC1F80
000FE0FC1F80
000FC0FE3F80
001FC07FFF00
001F807FFF00
001F803FFE00
001F001FFC00
000E0007F000
ENDCHAR
STARTCHAR ampersand
ENCODING 38
SWIDTH 778 0
DWIDTH 37 0
BBX 35 33 1 0
BITMAP
001F800000
007FE00000
01FFF80000
03FFF80000
03FFFC0000
07F9FC0000
07F0FE0000
07F07E0000
07F07E7C00
07F0FE7C00
03F0FC7E00
03F9FC7E00
03FFF87E00
07FFF83E00
0FFFF03E00
1FFFC03E00
3F9FE03E00
7F0FF07E00
7F07FC7E00
7E03FE7E00
7E01FF7E00
FE007FFC00
FE003FFC00
7E001FF800
7F000FF800
7F8007FC00
3FC01FFE00
3FFDFFFF00
1FFFFFFFC0
0FFFFF3FC0
07FFFE1FE0
01FFF80FE0
003FC003C0
ENDCHAR
STARTCHAR quotesingle
ENCODING 39
SWIDTH 222 0
DWIDTH 11 0
BBX 5 13 3 20
BITMAP
70
F8
F8
F8
F8
F8
F8
F8
F8
F8
F8
F8
F0
ENDCHAR
STARTCHAR parenleft
ENCODING 40
SWIDTH 389 0
DWIDTH 19 0
BBX 14 42 3 -9
BITMAP
0038
00FC
01FC
03FC
03F8
07F0
0FE0
0FC0
1F80
3F80
3F00
3F00
7E00
7E00
FE00
FC00
FC00
FC00
FC00
FC00
FC00
FC00
FC00
FC00
FC00
FC00
FC00
7E00
7E00
7E00
3F00
3F00
3F80
1F80
0FC0
0FE0
07F0
03F8
03FC
01FC
00FC
0038
ENDCHAR
STARTCHAR parenright
ENCODING 41
SWIDTH 389 0
DWIDTH 19 0
BBX 14 42 2 -9
BITMAP
7000
F800
FC00
FE00
7F00
3F80
1F80
0FC0
0FE0
07E0
07F0
03F0
03F0
01F8
01F8
01F8
01FC
00FC
00FC
00FC
00FC
00FC
00FC
00FC
00FC
00FC
01F8
01F8
01F8
03F0
03F0
07F0
07E0
0FE0
0FC0
1F80
3F80
7F00
FE00
FC00
F800
7000
ENDCHAR
STARTCHAR asterisk
ENCODING 42
SWIDTH 444 0
DWIDTH 21 0
BBX 16 17 3 16
BITMAP
0380
03C0
07C0
63CE
F39E
FBBF
FDFE
3FF8
07C0
3FF8
FFFE
FBBE
FB9E
73CE
07C0
03C0
0380
ENDCHAR
STARTCHAR plus
ENCODING 43
SWIDTH 600 0
DWIDTH 29 0
BBX 25 24 2 0
BITMAP
003E0000
003E0000
003E0000
003E0000
003E0000
003E0000
003E0000
003E0000
003E0000
003E0000
FFFFFF80
FFFFFF80
FFFFFF80
FFFFFF80
FFFFFF80
003E0000
003E0000
003E0000
003E0000
003E0000
003E0000
003E0000
003E0000
003E0000
ENDCHAR
STARTCHAR comma
ENCODING 44
SWIDTH 305 0
DWIDTH 15 0
BBX 9 13 2 -5
BITMAP
0F00
1F80
1F80
1F80
3F80
3F00
3F00
7E00
7E00
7C00
FC00
7C00
7800
ENDCHAR
STARTCHAR hyphen
ENCODING 45
SWIDTH 333 0
DWIDTH 16 0
BBX 12 5 2 10
BITMAP
7FE0
FFF0
FFF0
FFF0
7FE0
ENDCHAR
STARTCHAR period
ENCODING 46
SWIDTH 305 0
DWIDTH 15 0
BBX 7 7 4 0
BITMAP
38
FC
FE
FE
FE
FC
78
ENDCHAR
STARTCHAR slash
ENCODING 47
SWIDTH 278 0
DWIDTH 13 0
BBX 16 33 -1 0
BITMAP
001E
003E
003F
003F
007E
007E
00FE
00FC
00FC
01F8
01F8
01F8
03F0
03F0
07F0
07E0
07E0
0FC0
0FC0
1FC0
1F80
1F80
3F00
3F00
3F00
7E00
7E00
FE00
FC00
FC00
F800
F800
7000
ENDCHAR
STARTCHAR zero
ENCODING 48
SWIDTH 611 0
DWIDTH 29 0
BBX 27 33 1 0
BITMAP
003F8000
00FFF000
03FFF800
07FFFC00
0FFFFE00
1FFFFF00
1FE0FF00
3FC03F80
3F803F80
7F001FC0
7F001FC0
7E000FC0
7E000FC0
7E000FE0
7E000FE0
FE000FE0
FE000FE0
FE000FE0
7E000FE0
7E000FE0
7E000FC0
7E000FC0
7F001FC0
7F001FC0
3F803F80
3FC03F80
1FE0FF00
1FFFFF00
0FFFFE00
07FFFC00
03FFF800
00FFF000
003F8000
ENDCHAR
STARTCHAR one
ENCODING 49
SWIDTH 611 0
DWIDTH 29 0
BBX 23 33 4 0
BITMAP
003C00
01FE00
3FFE00
7FFE00
FFFE00
FFFE00
7FFE00
007E00
007E00
007E00
007E00
007E00
007E00
007E00
007E00
007E00
007E00
007E00
007E00
007E00
007E00
007E00
007E00
007E00
007E00
007E00
007E00
007E00
7FFFFE
7FFFFE
FFFFFE
7FFFFE
3FFFFC
ENDCHAR
STARTCHAR two
ENCODING 50
SWIDTH 611 0
DWIDTH 29 0
BBX 25 33 2 0
BITMAP
3FFFC000
7FFFF000
7FFFFC00
7FFFFE00
3FFFFE00
1FFFFF00
0000FF00
00007F00
00007F00
00007F00
00007F00
0000FF00
0001FE00
0007FE00
000FFC00
003FF800
00FFF000
01FFE000
07FF8000
0FFE0000
1FF80000
3FE00000
7FC00000
7F000000
FE000000
FE000000
FE000000
FE000000
FFFFFF80
FFFFFF80
FFFFFF80
FFFFFF80
3FFFFF00
ENDCHAR
STARTCHAR three
ENCODING 51
SWIDTH 611 0
DWIDTH 29 0
BBX 26 33 2 0
BITMAP
3FFFFC00
7FFFFE00
7FFFFE00
7FFFFE00
7FFFFE00
0003FC00
000FF800
001FE000
007FC000
01FF0000
07FC0000
0FFF8000
1FFFF000
1FFFFC00
0FFFFE00
07FFFF00
0003FF00
00007F80
00003F80
00001FC0
00001FC0
00001FC0
00001FC0
00001FC0
00001FC0
00003F80
00007F80
7FFFFF00
FFFFFF00
FFFFFE00
FFFFFC00
FFFFF000
7FFF8000
ENDCHAR
STARTCHAR four
ENCODING 52
SWIDTH 611 0
DWIDTH 29 0
BBX 28 33 1 0
BITMAP
0001F000
0007F800
001FFC00
003FFC00
007FFC00
00FFFC00
01FEFC00
03F8FC00
07F0FC00
0FE0FC00
0FC0FC00
1F80FC00
1F80FC00
3F00FC00
3E00FC00
7E00FC00
7E00FC00
FC00FC00
FC00FC00
FC00FC00
FFFFFFE0
FFFFFFF0
FFFFFFF0
FFFFFFF0
7FFFFFF0
0000FC00
0000FC00
0000FC00
0000FC00
0000FC00
0000FC00
0000F800
00007800
ENDCHAR
STARTCHAR five
ENCODING 53
SWIDTH 611 0
DWIDTH 29 0
BBX 26 33 2 0
BITMAP
1FFFFC00
3FFFFE00
3FFFFE00
3FFFFE00
3FFFFC00
3F000000
3F000000
3F000000
7F000000
7F000000
7FFF8000
7FFFE000
7FFFF800
7FFFFC00
3FFFFE00
0007FF00
0000FF80
00003F80
00001FC0
00001FC0
00000FC0
00000FC0
00000FC0
00000FC0
00001FC0
00001FC0
00007F80
000FFF80
FFFFFF00
FFFFFE00
FFFFFC00
FFFFF000
7FFF8000
ENDCHAR
STARTCHAR six
ENCODING 54
SWIDTH 611 0
DWIDTH 29 0
BBX 26 33 2 0
BITMAP
003FFF00
01FFFF80
07FFFF80
0FFFFF80
1FFFFF00
1FFC0000
3FC00000
3F800000
7F000000
7E000000
FE3FE000
FEFFF800
FFFFFC00
FFFFFE00
FFFFFF00
FFE0FF80
FF807F80
FF003FC0
FE001FC0
FE001FC0
FE001FC0
FE001FC0
FE001FC0
FE001FC0
7F001FC0
7F003F80
3FC07F80
3FFFFF00
1FFFFE00
0FFFFC00
07FFF800
01FFF000
007F8000
ENDCHAR
STARTCHAR seven
ENCODING 55
SWIDTH 611 0
DWIDTH 29 0
BBX 24 33 3 0
BITMAP
7FFFFC
FFFFFE
FFFFFE
FFFFFF
7FFFFE
00007E
00007E
0000FE
0000FE
0001FC
0001FC
0003F8
0007F0
000FF0
001FE0
001FC0
003FC0
007F80
007F00
00FE00
00FE00
01FC00
01FC00
03F800
03F800
03F800
03F000
03F000
03F800
03F800
03F800
01F000
00E000
ENDCHAR
STARTCHAR eight
ENCODING 56
SWIDTH 611 0
DWIDTH 29 0
BBX 27 33 1 0
BITMAP
007FC000
01FFF000
07FFFC00
0FFFFE00
1FFFFF00
1FF0FF80
3FC07F80
3F803F80
3F801F80
3F803F80
3FC03F80
1FE0FF80
1FFFFF00
0FFFFE00
07FFFC00
0FFFFF00
3FFFFF80
3FF0FFC0
7F803FC0
7F001FE0
FE000FE0
FE000FE0
FE000FE0
FE000FE0
FF000FE0
7F801FE0
7FC07FC0
3FFFFFC0
3FFFFF80
1FFFFF00
07FFFE00
03FFF800
007FC000
ENDCHAR
STARTCHAR nine
ENCODING 57
SWIDTH 611 0
DWIDTH 29 0
BBX 27 33 1 0
BITMAP
007F8000
01FFF000
07FFF800
0FFFFE00
1FFFFE00
3FFFFF00
3FC07F80
7F003F80
7F001FC0
FE001FC0
FE001FC0
FE000FC0
FE001FE0
FE001FE0
FE001FE0
7F003FE0
7F807FE0
3FE0FFE0
3FFFFFE0
1FFFFFC0
0FFFFFC0
07FFFFC0
01FF9FC0
00001FC0
00003F80
00003F80
0000FF00
000FFF00
3FFFFE00
7FFFFC00
7FFFF800
3FFFE000
3FFF8000
ENDCHAR
STARTCHAR colon
ENCODING 58
SWIDTH 305 0
DWIDTH 15 0
BBX 7 21 4 0
BITMAP
38
FC
FE
FE
FE
FC
78
00
00
00
00
00
00
00
38
FC
FE
FE
FE
FC
78
ENDCHAR
STARTCHAR semicolon
ENCODING 59
SWIDTH 305 0
DWIDTH 15 0
BBX 9 25 2 -5
BITMAP
1E00
3F00
3F00
7F00
3F00
3F00
1E00
0000
0000
0000
0000
0000
0E00
1F00
1F80
3F80
3F00
3F00
7E00
7E00
FE00
FC00
FC00
F800
7800
ENDCHAR
STARTCHAR less
ENCODING 60
SWIDTH 600 0
DWIDTH 29 0
BBX 25 24 2 0
BITMAP
00000180
00000780
00003F80
0000FF80
0007FF80
003FFF00
00FFF800
07FFC000
1FFF0000
FFF80000
FFE00000
FF000000
FF000000
FFE00000
FFF80000
1FFF0000
07FFC000
00FFF800
001FFF00
0007FF80
0000FF80
00003F80
00000780
00000180
ENDCHAR
STARTCHAR equal
ENCODING 61
SWIDTH 600 0
DWIDTH 29 0
BBX 25 15 2 5
BITMAP
FFFFFF80
FFFFFF80
FFFFFF80
FFFFFF80
FFFFFF80
00000000
00000000
00000000
00000000
00000000
FFFFFF80
FFFFFF80
FFFFFF80
FFFFFF80
FFFFFF80
ENDCHAR
STARTCHAR greater
ENCODING 62
SWIDTH 600 0
DWIDTH 29 0
BBX 25 24 2 0
BITMAP
80000000
F0000000
FE000000
FF800000
FFF00000
7FFC0000
0FFF8000
03FFE000
007FFC00
000FFF00
0003FF80
00007F80
00007F80
0003FF80
000FFF80
007FFC00
03FFE000
0FFF8000
7FFC0000
FFF00000
FF800000
FE000000
F0000000
C0000000
ENDCHAR
STARTCHAR question
ENCODING 63
SWIDTH 500 0
DWIDTH 24 0
BBX 21 33 1 0
BITMAP
7FFF00
FFFFC0
FFFFE0
FFFFF0
FFFFF8
000FF8
0003F8
0001F8
0003F8
0003F8
0007F0
000FF0
003FE0
007FC0
00FF80
01FF00
03FC00
03F800
07F000
07F000
07E000
03E000
03C000
000000
000000
000000
03E000
07E000
07F000
07F000
07F000
07E000
03C000
ENDCHAR
STARTCHAR at
ENCODING 64
SWIDTH 800 0
DWIDTH 38 0
BBX 34 33 2 0
BITMAP
0003FC0000
003FFF8000
00FFFFE000
01FFFFF800
03F800FC00
07E0003E00
0F80001F00
1F00000F80
3E03F9E780
3E0FFDE780
7C1FFFE3C0
7C3FFFE3C0
787F0FE3C0
F87C07C3C0
F8F807C3C0
F8F807C3C0
F8F807C3C0
F8F00783C0
F8F0078380
F8F80F8780
78F81F8F00
7CFC3F9E00
7C7FFFFC00
3E7FFFF800
3E3FEFF000
1F0FCFC000
0F80000F00
07E0003E00
03F800FC00
01FFDFF800
007FFFF000
001FFFC000
0003FE0000
ENDCHAR
STARTCHAR A
ENCODING 65
SWIDTH 667 0
DWIDTH 32 0
BBX 30 33 1 0
BITMAP
00078000
001FC000
003FE000
003FF000
007FF000
00FFF800
00FDFC00
01FCFC00
01F87E00
03F07E00
03F03F00
07E03F00
07E03F80
0FC01F80
0FFC1F80
0FFF8FC0
1FFFEFC0
1FFFFFE0
3FFFFFE0
3F03FFE0
3F00FFF0
3F003FF0
7F000FF0
7E0007F8
7E0007F8
7E0003F8
FE0001F8
FE0001FC
FC0001FC
FC0001FC
FC0000FC
7C0000F8
78000070
ENDCHAR
STARTCHAR B
ENCODING 66
SWIDTH 611 0
DWIDTH 29 0
BBX 25 33 3 0
BITMAP
7FFFE000
FFFFF800
FFFFFC00
FFFFFE00
FFFFFE00
FC01FE00
FC007E00
FC007E00
FC007E00
FC007E00
FFE0FC00
FFFDFC00
FFFFF800
FFFFF000
FFFFF000
FC3FF800
FC07FC00
FC01FE00
FC00FE00
FC007F00
FC003F00
FC003F80
FC003F80
FC003F80
FC003F80
FC003F80
FC007F00
FC0FFF00
FFFFFE00
FFFFFE00
FFFFFC00
FFFFF800
7FFFE000
ENDCHAR
STARTCHAR C
ENCODING 67
SWIDTH 611 0
DWIDTH 29 0
BBX 26 33 2 0
BITMAP
007FFF80
03FFFFC0
07FFFFC0
0FFFFFC0
1FFFFF80
3FFFFF00
3FC00000
7F800000
7F000000
FF000000
FE000000
FE000000
FE000000
FE000000
FE000000
FE000000
FE000000
FE000000
7F000000
7F000000
7F800000
3FC00000
3FE00000
1FF00000
1FF80000
0FFE0000
07FFC000
03FFFF80
01FFFFC0
007FFFC0
001FFFC0
0007FFC0
00007F00
ENDCHAR
STARTCHAR D
ENCODING 68
SWIDTH 667 0
DWIDTH 32 0
BBX 27 33 3 0
BITMAP
3FC00000
7FFC0000
FFFF8000
FFFFC000
FFFFF000
FFFFF800
FC1FFC00
FC07FE00
FC01FF00
FC00FF00
FC007F80
FC003FC0
FC003FC0
FC001FC0
FC001FE0
FC000FE0
FC000FE0
FC000FE0
FC000FE0
FC000FE0
FC000FE0
FC000FE0
FC000FE0
FC000FE0
FC001FC0
FC003FC0
FC00FFC0
FFFFFF80
FFFFFF00
FFFFFE00
FFFFFC00
FFFFF800
3FFFC000
ENDCHAR
STARTCHAR E
ENCODING 69
SWIDTH 556 0
DWIDTH 27 0
BBX 22 33 3 0
BITMAP
7FFFF0
7FFFF8
FFFFFC
FFFFF8
FFFFF8
FE0000
FE0000
FE0000
FE0000
FE0000
FFFFF8
FFFFF8
FFFFF8
FFFFF8
FFFFF0
FE0000
FE0000
FE0000
FE0000
FE0000
FE0000
FE0000
FE0000
FE0000
FE0000
FE0000
FE0000
FE0000
FFFFF8
FFFFF8
FFFFFC
7FFFF8
3FFFF8
ENDCHAR
STARTCHAR F
ENCODING 70
SWIDTH 500 0
DWIDTH 24 0
BBX 21 33 3 0
BITMAP
7FFFE0
7FFFF0
FFFFF8
FFFFF0
FFFFF0
FE0000
FE0000
FE0000
FE0000
FE0000
FFFFE0
FFFFF0
FFFFF0
FFFFF0
FFFFE0
FE0000
FE0000
FE0000
FE0000
FE0000
FE0000
FE0000
FE0000
FE0000
FE0000
FE0000
FE0000
FE0000
FE0000
FE0000
FE0000
7C0000
780000
ENDCHAR
STARTCHAR G
ENCODING 71
SWIDTH 722 0
DWIDTH 35 0
BBX 30 33 2 0
BITMAP
007FFFE0
03FFFFF0
07FFFFF0
0FFFFFF0
1FFFFFF0
3FFFFFE0
7FE00000
7F800000
7F000000
FE000000
FE01FFF8
FE03FFFC
FE03FFFC
FE03FFFC
FE03FFFC
FE0000FC
FE0000FC
FE0000FC
FE0000FC
7F0000FC
7F0000FC
3F8000FC
3FC000FC
1FE000FC
1FF800FC
0FFE00FC
07FFC0FC
03FFFFFC
01FFFFFC
007FFFFC
001FFFFC
0003FFFC
00003FF0
ENDCHAR
STARTCHAR H
ENCODING 72
SWIDTH 611 0
DWIDTH 29 0
BBX 23 33 3 0
BITMAP
78003C
FC003E
FC007E
FC007E
FC007E
FC007E
FC007E
FC007E
FC007E
FC007E
FFFFFE
FFFFFE
FFFFFE
FFFFFE
FFFFFE
FC007E
FC007E
FC007E
FC007E
FC007E
FC007E
FC007E
FC007E
FC007E
FC007E
FC007E
FC007E
FC007E
FC007E
FC007E
FC007E
FC003E
78003C
ENDCHAR
STARTCHAR I
ENCODING 73
SWIDTH 278 0
DWIDTH 13 0
BBX 6 33 4 0
BITMAP
70
F8
FC
FC
FC
FC
FC
FC
FC
FC
FC
FC
FC
FC
FC
FC
FC
FC
FC
FC
FC
FC
FC
FC
FC
FC
FC
FC
FC
FC
FC
F8
78
ENDCHAR
STARTCHAR J
ENCODING 74
SWIDTH 444 0
DWIDTH 21 0
BBX 19 33 -1 0
BITMAP
0003C0
0003E0
0007E0
0007E0
0007E0
0007E0
0007E0
0007E0
0007E0
0007E0
0007E0
0007E0
0007E0
0007E0
0007E0
0007E0
0007E0
0007E0
0007E0
0007E0
0007E0
0007E0
0007E0
0007E0
0007E0
000FE0
7C1FE0
FFFFC0
FFFFC0
7FFF80
7FFF00
1FFE00
07F000
ENDCHAR
STARTCHAR K
ENCODING 75
SWIDTH 611 0
DWIDTH 29 0
BBX 25 33 3 0
BITMAP
38001C00
7C003E00
FC007E00
FC007E00
FC007E00
FC00FE00
FC00FC00
FC01FC00
FC03F800
FC0FF000
FFFFE000
FFFFC000
FFFF8000
FFFF8000
FFFFE000
FC7FF000
FC0FF800
FC03F800
FC01FC00
FC00FE00
FC007E00
FC007F00
FC003F00
FC003F00
FC001F80
FC001F80
FC001F80
FC001F80
FC001F80
FC001F80
FC000F80
7C000F80
78000700
ENDCHAR
STARTCHAR L
ENCODING 76
SWIDTH 444 0
DWIDTH 21 0
BBX 19 33 3 0
BITMAP
380000
7C0000
7C0000
FE0000
FE0000
FE0000
FE0000
FE0000
FE0000
FE0000
FE0000
FE0000
FE0000
FE0000
FE0000
FE0000
FE0000
FE0000
FE0000
FE0000
FE0000
FE0000
FE0000
FE0000
FE0000
FE0000
FE0000
FFFF80
FFFFC0
FFFFE0
7FFFE0
7FFFE0
3FFFC0
ENDCHAR
STARTCHAR M
ENCODING 77
SWIDTH 722 0
DWIDTH 35 0
BBX 30 33 2 0
BITMAP
078003C0
0FC007E0
1FE00FF0
1FE00FF0
1FE01FF0
3FF01FF0
3FF03FF0
3FF83FF8
3FF87FF8
3EFC7FF8
3EFCFDF8
3E7EFDF8
7E7FF8F8
7E3FF8F8
7E3FF0F8
7E1FF0FC
7E0FE0FC
7E07C0FC
7E0380FC
7C0000FC
7C0000FC
7C0000FC
7C0000FC
FC0000FC
FC0000FC
FC0000FC
FC0000FC
FC0000FC
FC0000FC
FC0000FC
7C0000FC
7C00007C
38000078
ENDCHAR
STARTCHAR N
ENCODING 78
SWIDTH 611 0
DWIDTH 29 0
BBX 23 33 3 0
BITMAP
3C003C
7E003E
FF007E
FF807E
FFC07E
FFE07E
FFF07E
FFF87E
FFFE7E
FDFFFE
FCFFFE
FC3FFE
FC1FFE
FC07FE
FC01FE
FC007E
FC007E
FC007E
FC007E
FC007E
FC007E
FC007E
FC007E
FC007E
FC007E
FC007E
FC007E
FC007E
FC007E
FC007E
FC007E
FC003E
78003C
ENDCHAR
STARTCHAR O
ENCODING 79
SWIDTH 722 0
DWIDTH 35 0
BBX 31 33 2 0
BITMAP
001FE000
00FFFC00
01FFFF00
07FFFF80
0FFFFFC0
1FFFFFE0
1FE01FF0
3FC007F8
7F8003F8
7F0003FC
7F0001FC
FE0001FC
FE0000FE
FE0000FE
FE0000FE
FE0000FE
FE0000FE
FE0000FE
FE0000FE
FE0000FE
FE0000FE
FE0001FC
7F0001FC
7F0003FC
7F8003F8
3FC007F8
1FE01FF0
1FFEFFE0
0FFFFFC0
07FFFF80
01FFFF00
007FFC00
001FE000
ENDCHAR
STARTCHAR P
ENCODING 80
SWIDTH 556 0
DWIDTH 27 0
BBX 24 33 3 0
BITMAP
7FFFE0
FFFFF8
FFFFFC
FFFFFE
FFFFFE
FC00FF
FC007F
FC003F
FC007E
FC00FE
FC01FE
FC07FC
FC1FFC
FC7FF8
FFFFE0
FFFFC0
FFFF00
FFFC00
FFE000
FF0000
FC0000
FC0000
FC0000
FC0000
FC0000
FC0000
FC0000
FC0000
FC0000
FC0000
FC0000
7C0000
780000
ENDCHAR
STARTCHAR Q
ENCODING 81
SWIDTH 722 0
DWIDTH 35 0
BBX 31 40 2 -7
BITMAP
001FE000
00FFFC00
01FFFF00
07FFFF80
0FFFFFC0
1FFFFFE0
1FE01FF0
3FC007F8
7F8003F8
7F0003FC
7F0001FC
FE0001FC
FE0000FE
FE0000FE
FE0000FE
FE0000FE
FE0000FE
FE0000FE
FE0000FE
FE1F80FE
FE3FC0FE
FE3FE1FC
7F3FF1FC
7F1FFBFC
7F83FFF8
3FC1FFF8
1FE0FFF0
1FFEFFE0
0FFFFFC0
07FFFF80
01FFFF00
007FFF00
001FFF00
00003FC0
00001FFC
00001FFE
00000FFE
000007FE
000001FE
00000038
ENDCHAR
STARTCHAR R
ENCODING 82
SWIDTH 611 0
DWIDTH 29 0
BBX 25 33 3 0
BITMAP
7FFFC000
FFFFF800
FFFFFC00
FFFFFE00
FFFFFE00
FC03FE00
FC007E00
FC007E00
FC007E00
FC007E00
FFE0FE00
FFFFFC00
FFFFF800
FFFFF000
FFFFE000
FC7FF000
FC0FF800
FC03FC00
FC01FC00
FC00FE00
FC007E00
FC007F00
FC003F00
FC003F80
FC001F80
FC001F80
FC001F80
FC001F80
FC001F80
FC001F80
FC001F80
FC000F80
78000700
ENDCHAR
STARTCHAR S
ENCODING 83
SWIDTH 611 0
DWIDTH 29 0
BBX 26 33 1 0
BITMAP
01FFFC00
0FFFFE00
1FFFFF00
3FFFFF00
7FFFFE00
7FFFFC00
7E000000
7E000000
7F000000
7FC00000
7FFE0000
3FFFE000
3FFFF800
0FFFFE00
03FFFF00
007FFF80
0001FF80
00003FC0
00001FC0
00000FC0
00000FC0
00000FC0
00000FC0
00000FC0
00001FC0
00001FC0
00007F80
3FFFFF80
7FFFFF00
FFFFFE00
FFFFFC00
7FFFF000
7FFFC000
ENDCHAR
STARTCHAR T
ENCODING 84
SWIDTH 500 0
DWIDTH 24 0
BBX 24 33 0 0
BITMAP
7FFFFC
7FFFFE
FFFFFF
FFFFFF
7FFFFE
3FFFFC
007E00
007E00
007E00
007E00
007E00
007E00
007E00
007E00
007E00
007E00
007E00
007E00
007E00
007E00
007E00
007E00
007E00
007E00
007E00
007E00
007E00
007E00
007E00
007E00
007E00
007E00
003C00
ENDCHAR
STARTCHAR U
ENCODING 85
SWIDTH 611 0
DWIDTH 29 0
BBX 25 33 2 0
BITMAP
1E001C00
3E003E00
3F003E00
3F003E00
3F003E00
3F003F00
3F003F00
3E003F00
7E003F00
7E003F00
7E003F00
7E003F00
7E003F00
7E003F00
7E001F00
7E001F00
7C001F80
7C001F80
7C001F80
FC001F80
FC001F80
FC001F80
FC001F80
7E001F80
7E003F00
7F007F00
7F80FF00
3FF7FE00
1FFFFE00
1FFFFC00
07FFF800
03FFE000
007F0000
ENDCHAR
STARTCHAR V
ENCODING 86
SWIDTH 611 0
DWIDTH 29 0
BBX 27 33 1 0
BITMAP
3C0003C0
7C0007C0
7E0007E0
FE000FE0
FE000FE0
7E000FE0
7E000FE0
7E000FC0
7E000FC0
7F000FC0
7F001FC0
3F001FC0
3F001F80
3F001F80
3F801F80
1F803F80
1F803F00
1FC03F00
0FC07F00
0FC07E00
0FE07E00
07E0FE00
07F0FC00
03F1FC00
03F9F800
03FBF800
01FFF000
01FFF000
00FFE000
007FE000
007FC000
003F8000
001F0000
ENDCHAR
STARTCHAR W
ENCODING 87
SWIDTH 833 0
DWIDTH 40 0
BBX 37 33 1 0
BITMAP
3800780070
7C00FC00F8
7C00FC01F8
FE00FC01F8
FE00FC01F8
7E00FC01F8
7E00FC01F8
7E01FC01F8
7E01FE01F8
7E01FE01F8
7E01FE01F8
7E01FE03F0
3F01FE03F0
3F01FE03F0
3F01FE03F0
3F03FF03F0
3F03FF03E0
1F03FF07E0
1F83FF07E0
1F87CF87E0
1F87CF87C0
0F87CF8FC0
0FCFCFCFC0
0FCF87CFC0
07DF87EF80
07FF87FF80
07FF03FF80
03FF03FF00
03FE01FF00
03FE01FF00
01FC00FE00
00FC00FC00
0078007800
ENDCHAR
STARTCHAR X
ENCODING 88
SWIDTH 611 0
DWIDTH 29 0
BBX 27 33 1 0
BITMAP
1C000780
3E000FC0
7F000FC0
7F001FC0
3F803FC0
3FC03F80
3FC07F80
1FE0FF00
0FF9FE00
07FFFC00
03FFF800
00FFF000
007FC000
00FFE000
01FFF000
03FFF800
07FBFC00
0FF1FE00
0FE0FF00
1FC07F00
3FC03F80
3F803F80
3F001FC0
7F001FC0
7F000FC0
FE000FE0
FE000FE0
FE0007E0
FC0007E0
FC0007E0
FC0007E0
FC0007E0
780003C0
ENDCHAR
STARTCHAR Y
ENCODING 89
SWIDTH 556 0
DWIDTH 27 0
BBX 25 33 1 0
BITMAP
70000F00
F8001F80
FC001F80
FC003F80
FE003F80
FE003F00
7E007F00
7F007F00
3F80FE00
3F80FE00
1FC1FC00
1FE3F800
0FF7F800
07FFF000
03FFE000
01FFC000
00FF8000
007F0000
007F0000
007F0000
007F0000
007F0000
007F0000
007F0000
007F0000
007F0000
007F0000
007F0000
007F0000
007F0000
007E0000
007E0000
003C0000
ENDCHAR
STARTCHAR Z
ENCODING 90
SWIDTH 500 0
DWIDTH 24 0
BBX 22 33 1 0
BITMAP
1FFFF0
3FFFF8
3FFFFC
3FFFFC
3FFFFC
1FFFF8
0001F8
0001F8
0003F8
0003F0
0007F0
000FE0
001FE0
003FC0
007F80
00FF00
01FF00
03FE00
07FC00
0FF000
1FE000
3FC000
3F8000
7F0000
7F0000
7E0000
FC0000
FFFFF0
FFFFFC
FFFFFC
FFFFFC
7FFFFC
3FFFF8
ENDCHAR
STARTCHAR bracketleft
ENCODING 91
SWIDTH 389 0
DWIDTH 19 0
BBX 13 42 4 -9
BITMAP
7FF0
FFF8
FFF8
FFF8
FFF0
F800
F800
F800
F800
F800
F800
F800
F800
F800
F800
F800
F800
F800
F800
F800
F800
F800
F800
F800
F800
F800
F800
F800
F800
F800
F800
F800
F800
F800
F800
F800
F800
FFF0
FFF8
FFF8
FFF8
7FF0
ENDCHAR
STARTCHAR backslash
ENCODING 92
SWIDTH 278 0
DWIDTH 13 0
BBX 16 33 -1 0
BITMAP
7000
F800
F800
FC00
FC00
FE00
7E00
7E00
7F00
3F00
3F00
1F80
1F80
1FC0
0FC0
0FC0
07E0
07E0
07E0
03F0
03F0
03F8
01F8
01F8
00FC
00FC
00FE
007E
007E
003F
003F
003E
001E
ENDCHAR
STARTCHAR bracketright
ENCODING 93
SWIDTH 389 0
DWIDTH 19 0
BBX 14 42 1 -9
BITMAP
7FF8
7FFC
FFFC
7FFC
7FFC
00FC
00FC
00FC
00FC
00FC
00FC
00FC
00FC
00FC
00FC
00FC
00FC
00FC
00FC
00FC
00FC
00FC
00FC
00FC
00FC
00FC
00FC
00FC
00FC
00FC
00FC
00FC
00FC
00FC
00FC
00FC
00FC
7FFC
7FFC
FFFC
7FFC
7FF8
ENDCHAR
STARTCHAR asciicircum
ENCODING 94
SWIDTH 600 0
DWIDTH 29 0
BBX 21 18 4 15
BITMAP
00F800
01F800
01FC00
03FC00
03FE00
07DE00
07DF00
0F8F00
0F8F80
0F0F80
1F07C0
1E07C0
3E03E0
3C03E0
7C01F0
7C01F0
F800F8
F800F8
ENDCHAR
STARTCHAR underscore
ENCODING 95
SWIDTH 500 0
DWIDTH 24 0
BBX 24 2 0 -6
BITMAP
FFFFFF
FFFFFF
ENDCHAR
STARTCHAR grave
ENCODING 96
SWIDTH 278 0
DWIDTH 13 0
BBX 13 7 0 27
BITMAP
7000
FE00
FF80
FFF0
7FF8
07F8
0078
ENDCHAR
STARTCHAR a
ENCODING 97
SWIDTH 556 0
DWIDTH 27 0
BBX 22 24 1 0
BITMAP
1FFF80
3FFFE0
3FFFF0
3FFFF8
1FFFF8
0001F8
0000F8
0000FC
007FFC
03FFFC
0FFFFC
3FFFFC
3FFCFC
7F80FC
7E00FC
FC00FC
FC00FC
FC01FC
7E03FC
7FFFFC
3FFFFC
3FFFFC
0FFE78
03F878
ENDCHAR
STARTCHAR b
ENCODING 98
SWIDTH 556 0
DWIDTH 27 0
BBX 22 33 3 0
BITMAP
780000
F80000
FC0000
FC0000
FC0000
FC0000
FC0000
FC0000
FC0000
FFE000
FFFC00
FFFF00
FFFF80
FFFFC0
FCFFE0
FC1FF0
FC07F8
FC03F8
FC01FC
FC01FC
FC00FC
FC00FC
FC00FC
FC00FC
FC00FC
FC01FC
FC01FC
FC07F8
FFFFF0
FFFFF0
FFFFE0
FFFF80
7FFC00
ENDCHAR
STARTCHAR c
ENCODING 99
SWIDTH 500 0
DWIDTH 24 0
BBX 22 24 2 0
BITMAP
03FFF0
0FFFF8
1FFFF8
3FFFF8
7FFFF8
7FE000
FF0000
FE0000
FC0000
FC0000
FC0000
FC0000
FC0000
FC0000
FE0000
7F0000
7F8000
3FE000
3FFF00
1FFFF8
07FFFC
03FFFC
00FFFC
001FF0
ENDCHAR
STARTCHAR d
ENCODING 100
SWIDTH 556 0
DWIDTH 27 0
BBX 23 33 1 0
BITMAP
00003C
00007C
00007E
00007E
00007E
00007E
00007E
00007E
00007E
000FFE
007FFE
01FFFE
07FFFE
0FFFFE
1FFC7E
1FE07E
3FC07E
7F807E
7F007E
7E007E
7E007E
FE007E
FC007E
FE007E
7E007E
7E007E
7F007E
3FC07E
3FFFFE
1FFFFE
0FFFFE
03FFFE
00FFFC
ENDCHAR
STARTCHAR e
ENCODING 101
SWIDTH 556 0
DWIDTH 27 0
BBX 23 24 2 0
BITMAP
00FF00
03FFC0
0FFFE0
1FFFF8
3FFFF8
7F83FC
7F00FC
FE00FE
FC007E
FFFFFE
FFFFFE
FFFFFE
FFFFFE
FC0000
FC0000
FC0000
FE0000
7F0000
7FE000
3FFFFC
1FFFFE
0FFFFE
03FFFE
007FFC
ENDCHAR
STARTCHAR f
ENCODING 102
SWIDTH 333 0
DWIDTH 16 0
BBX 17 33 0 0
BITMAP
00FF00
03FF80
07FF80
07FF80
0FFF80
0FF000
0FC000
0FC000
0FC000
7FFE00
FFFF00
FFFF80
FFFF00
FFFF00
0FC000
0FC000
0FC000
0FC000
0FC000
0FC000
0FC000
0FC000
0FC000
0FC000
0FC000
0FC000
0FC000
0FC000
0FC000
0FC000
0FC000
0F8000
078000
ENDCHAR
STARTCHAR g
ENCODING 103
SWIDTH 556 0
DWIDTH 27 0
BBX 26 33 1 -9
BITMAP
001FFE00
00FFFF00
03FFFF00
07FFFF00
0FFFFE00
1FF0FC00
3FC0FC00
3F80FC00
7F00FC00
7E00FC00
7E00FC00
7E00FC00
7C00FC00
7C00FC00
7C00FC00
7E00FC00
7E00FC00
7F00FC00
3FC0FC00
3FFFFC00
1FFFFE00
0FFFFF00
07FFFF80
00FFFF80
00001FC0
00001F80
00003F80
FE01FF80
FFFFFF00
7FFFFE00
7FFFFC00
1FFFF000
03FF0000
ENDCHAR
STARTCHAR h
ENCODING 104
SWIDTH 556 0
DWIDTH 27 0
BBX 21 33 3 0
BITMAP
780000
F80000
FC0000
FC0000
FC0000
FC0000
FC0000
FC0000
FC0000
FC7E00
FDFF80
FFFFC0
FFFFE0
FFFFF0
FF87F0
FE03F0
FE01F8
FC01F8
FC01F8
FC01F8
FC01F8
FC01F8
FC01F8
FC01F8
FC01F8
FC01F8
FC01F8
FC01F8
FC01F8
FC01F8
FC01F8
F801F0
7800F0
ENDCHAR
STARTCHAR i
ENCODING 105
SWIDTH 278 0
DWIDTH 13 0
BBX 7 33 3 0
BITMAP
38
7C
7E
FE
7E
7C
3C
00
00
38
7C
7E
7E
7E
7E
7E
7E
7E
7E
7E
7E
7E
7E
7E
7E
7E
7E
7E
7E
7E
7E
7C
38
ENDCHAR
STARTCHAR j
ENCODING 106
SWIDTH 222 0
DWIDTH 11 0
BBX 16 42 -8 -9
BITMAP
001E
001F
003F
003F
003F
001F
001E
0000
0000
000E
001F
003F
003F
003F
003F
003F
003F
003F
003F
003F
003F
003F
003F
003F
003F
003F
003F
003F
003F
003F
003F
003F
003F
003F
003F
007F
3FFF
7FFE
FFFE
7FFC
7FF0
1FC0
ENDCHAR
STARTCHAR k
ENCODING 107
SWIDTH 500 0
DWIDTH 24 0
BBX 20 33 3 0
BITMAP
780000
F80000
FC0000
FC0000
FC0000
FC0000
FC0000
FC0000
FC0000
FC01C0
FC03E0
FC07E0
FC0FE0
FC1FC0
FC7F80
FFFF00
FFFE00
FFF800
FFFC00
FFFF00
FCFF80
FC3FC0
FC0FE0
FC07E0
FC07E0
FC03F0
FC03F0
FC01F0
FC01F0
FC01F0
FC01F0
F801F0
7800E0
ENDCHAR
STARTCHAR l
ENCODING 108
SWIDTH 278 0
DWIDTH 13 0
BBX 6 33 4 0
BITMAP
70
F8
FC
FC
FC
FC
FC
FC
FC
FC
FC
FC
FC
FC
FC
FC
FC
FC
FC
FC
FC
FC
FC
FC
FC
FC
FC
FC
FC
FC
FC
F8
70
ENDCHAR
STARTCHAR m
ENCODING 109
SWIDTH 833 0
DWIDTH 40 0
BBX 34 24 3 0
BITMAP
70FC01F800
FBFF07FE00
FFFF9FFF00
FFFFFFFF80
FFFFFFFF80
FF8FFE3FC0
FE07F81FC0
FC03F80FC0
FC03F00FC0
FC03F00FC0
FC03F00FC0
FC03F00FC0
FC03F00FC0
FC03F00FC0
FC03F00FC0
FC03F00FC0
FC03F00FC0
FC03F00FC0
FC03F00FC0
FC03F00FC0
FC03F00FC0
FC03F00FC0
F803F007C0
7801E00780
ENDCHAR
STARTCHAR n
ENCODING 110
SWIDTH 556 0
DWIDTH 27 0
BBX 21 24 3 0
BITMAP
787E00
F9FF80
FFFFC0
FFFFE0
FFFFF0
FF87F0
FE03F0
FE01F8
FC01F8
FC01F8
FC01F8
FC01F8
FC01F8
FC01F8
FC01F8
FC01F8
FC01F8
FC01F8
FC01F8
FC01F8
FC01F8
FC01F8
F801F0
7800F0
ENDCHAR
STARTCHAR o
ENCODING 111
SWIDTH 556 0
DWIDTH 27 0
BBX 23 24 2 0
BITMAP
00FE00
07FF80
0FFFE0
1FFFF0
3FFFF8
7FC7F8
7F01FC
FE00FC
FC00FE
FC007E
FC007E
FC007E
FC007E
FC007E
FC007E
FC00FE
FE00FC
7F01FC
7F87F8
3FFFF8
1FFFF0
0FFFE0
07FFC0
01FE00
ENDCHAR
STARTCHAR p
ENCODING 112
SWIDTH 556 0
DWIDTH 27 0
BBX 22 33 3 -9
BITMAP
3FC000
FFFC00
FFFF00
FFFF80
FFFFE0
FC7FF0
FC0FF0
FC07F8
FC03F8
FC01FC
FC00FC
FC00FC
FC00FC
FC00FC
FC00FC
FC00FC
FC01FC
FC03FC
FC0FF8
FFFFF0
FFFFF0
FFFFE0
FFFF80
FFFE00
FC0000
FC0000
FC0000
FC0000
FC0000
FC0000
FC0000
FC0000
780000
ENDCHAR
STARTCHAR q
ENCODING 113
SWIDTH 556 0
DWIDTH 27 0
BBX 23 33 1 -9
BITMAP
000FF8
007FFC
01FFFE
07FFFE
0FFFFE
1FFC7E
3FE07E
3F807E
7F007E
7E007E
7E007E
FE007E
FC007E
FC007E
FC007E
7E007E
7E007E
7F007E
3FE07E
3FFFFE
1FFFFE
0FFFFE
03FFFE
00FFFE
00007E
00007E
00007E
00007E
00007E
00007E
00007E
00007C
00003C
ENDCHAR
STARTCHAR r
ENCODING 114
SWIDTH 333 0
DWIDTH 16 0
BBX 14 24 3 0
BITMAP
78F8
79F8
FFFC
FFFC
FFF8
FFC0
FE00
FE00
FC00
FC00
FC00
FC00
FC00
FC00
FC00
FC00
FC00
FC00
FC00
FC00
FC00
FC00
7C00
7800
ENDCHAR
STARTCHAR s
ENCODING 115
SWIDTH 500 0
DWIDTH 24 0
BBX 22 24 1 0
BITMAP
07FFE0
1FFFF0
3FFFF0
7FFFF0
7FFFE0
7E0000
7E0000
7F0000
7FFC00
3FFF80
3FFFE0
0FFFF0
01FFF8
0007F8
0001FC
0000FC
0000FC
0001FC
0003F8
7FFFF8
FFFFF0
FFFFF0
FFFFC0
7FFF00
ENDCHAR
STARTCHAR t
ENCODING 116
SWIDTH 389 0
DWIDTH 19 0
BBX 19 31 0 0
BITMAP
03C000
07C000
07E000
07E000
07E000
07E000
07E000
7FFF00
7FFF80
FFFFC0
FFFF80
7FFF80
07E000
07E000
07E000
07E000
07E000
07E000
07E000
07E000
07E000
07E000
07E000
07E000
07E000
07F800
07FFE0
07FFE0
03FFE0
01FFE0
007FC0
ENDCHAR
STARTCHAR u
ENCODING 117
SWIDTH 556 0
DWIDTH 27 0
BBX 21 24 3 0
BITMAP
7800F0
F801F0
FC01F8
FC01F8
FC01F8
FC01F8
FC01F8
FC01F8
FC01F8
FC01F8
FC01F8
FC01F8
FC01F8
FC01F8
FC01F8
FC03F8
FC03F8
FE07F8
FF1FF8
7FFFF8
7FFFF8
3FFFF8
1FFDF0
07F0F0
ENDCHAR
STARTCHAR v
ENCODING 118
SWIDTH 500 0
DWIDTH 24 0
BBX 20 24 2 0
BITMAP
F000F0
F801F0
F801F0
F801F0
F801F0
FC03F0
FC03F0
FC03F0
FC03F0
7C03E0
7E07E0
7E07E0
3E07C0
3F0FC0
3F0FC0
1F1F80
1F9F80
0FFF00
0FFF00
07FE00
07FE00
03FC00
01F800
00F000
ENDCHAR
STARTCHAR w
ENCODING 119
SWIDTH 722 0
DWIDTH 35 0
BBX 31 24 2 0
BITMAP
7007803C
F807C03E
F80FC03E
F80FC07E
F80FC07E
F80FE07E
F80FE07E
FC0FE07E
FC0FE07C
FC0FE07C
7C1FE07C
7C1FF0FC
7E1FF0F8
7E3FF0F8
3E3EF9F8
3E3EF9F8
3F7CF9F0
1F7C7FF0
1FFC7FE0
0FF87FE0
0FF83FC0
07F03FC0
07F01F80
03E00F00
ENDCHAR
STARTCHAR x
ENCODING 120
SWIDTH 500 0
DWIDTH 24 0
BBX 22 24 1 0
BITMAP
3C00F0
3E01F0
7E01F8
7E01F8
7F03F0
3F03F0
3F87F0
1FCFE0
0FFFC0
07FF80
03FF00
07FF80
0FFFC0
1FFFE0
3FCFF0
3F87F0
7F03F8
7E01F8
FE01FC
FC00FC
FC00FC
FC00FC
FC00FC
780078
ENDCHAR
STARTCHAR y
ENCODING 121
SWIDTH 500 0
DWIDTH 24 0
BBX 21 33 2 -9
BITMAP
700070
F800F8
F800F8
F801F8
F801F8
FC01F8
FC01F8
FC01F0
FC03F0
7C03F0
7E03E0
7E07E0
3E07E0
3F07C0
3F0FC0
1F8F80
1F9F80
0FDF00
0FFF00
07FF00
03FE00
03FE00
01FC00
01F800
01F800
03F000
07F000
0FE000
1FC000
1F8000
1F8000
1F0000
0E0000
ENDCHAR
STARTCHAR z
ENCODING 122
SWIDTH 444 0
DWIDTH 21 0
BBX 20 24 1 0
BITMAP
3FFFC0
7FFFE0
7FFFE0
7FFFE0
3FFFE0
000FE0
001FC0
003FC0
007F80
00FF00
01FE00
07FC00
0FF800
1FF000
3FC000
3F8000
7F0000
FE0000
FE0000
FFFFE0
FFFFE0
FFFFF0
FFFFE0
7FFFE0
ENDCHAR
STARTCHAR braceleft
ENCODING 123
SWIDTH 389 0
DWIDTH 19 0
BBX 14 42 3 -9
BITMAP
01F8
07FC
0FFC
0FF8
0FC0
0F80
0F80
0F80
0F80
0F80
0F80
0F80
0F80
0F80
0F80
1F80
1F80
1F80
3F00
FF00
FC00
FC00
FE00
3F00
1F80
1F80
1F80
0F80
0F80
0F80
0F80
0F80
0F80
0F80
0F80
0F80
0F80
0FC0
0FF8
0FFC
07FC
01F8
ENDCHAR
STARTCHAR bar
ENCODING 124
SWIDTH 222 0
DWIDTH 11 0
BBX 5 48 3 -12
BITMAP
F8
F8
F8
F8
F8
F8
F8
F8
F8
F8
F8
F8
F8
F8
F8
F8
F8
F8
F8
F8
F8
F8
F8
F8
F8
F8
F8
F8
F8
F8
F8
F8
F8
F8
F8
F8
F8
F8
F8
F8
F8
F8
F8
F8
F8
F8
F8
F8
ENDCHAR
STARTCHAR braceright
ENCODING 125
SWIDTH 389 0
DWIDTH 19 0
BBX 14 42 2 -9
BITMAP
FE00
FF00
FF80
FFC0
0FC0
0FC0
0FC0
0FC0
0FC0
0FC0
0FC0
0FC0
0FC0
0FC0
0FC0
0FC0
0FC0
07E0
07F0
03FC
00FC
00FC
03FC
07F0
07E0
0FC0
0FC0
0FC0
0FC0
0FC0
0FC0
0FC0
0FC0
0FC0
0FC0
0FC0
0FC0
0FC0
FFC0
FF80
FF00
FE00
ENDCHAR
STARTCHAR asciitilde
ENCODING 126
SWIDTH 600 0
DWIDTH 29 0
BBX 22 8 3 8
BITMAP
0F8008
3FF01C
7FFC3C
7FFFFC
FFFFFC
703FF8
600FF0
400080
ENDCHAR
STARTCHAR uni00A0
ENCODING 160
SWIDTH 305 0
DWIDTH 15 0
BBX 1 1 0 0
BITMAP
00
ENDCHAR
STARTCHAR exclamdown
ENCODING 161
SWIDTH 333 0
DWIDTH 16 0
BBX 8 32 4 -9
BITMAP
3C
7E
7E
FF
7E
7E
3C
00
00
00
3C
7E
7E
7E
7E
7E
7E
7E
7E
7E
7E
7E
7E
7E
7E
7E
7E
7E
7E
7E
7E
3C
ENDCHAR
STARTCHAR cent
ENCODING 162
SWIDTH 611 0
DWIDTH 29 0
BBX 22 35 2 -2
BITMAP
001E00
001F00
003F00
003F00
003F00
003F00
01FFF8
07FFFC
1FFFFC
3FFFFC
7FFFF8
FFBF00
FE3F00
FE3F00
FC3F00
FC3F00
FC3F00
FC3F00
FE3F00
FE3F00
7F3F00
7FBF00
3FFF00
1FFFFC
0FFFFC
07FFFC
01FFFC
003FF8
003F00
003F00
003F00
003F00
003F00
001F00
001E00
ENDCHAR
STARTCHAR sterling
ENCODING 163
SWIDTH 611 0
DWIDTH 29 0
BBX 29 33 0 0
BITMAP
00007F80
0003FFE0
0007FFF8
000FFFF8
001FFFF8
003FFFF0
003F8000
007F0000
007F0000
007E0000
007E0000
007E0000
007E0000
1FFFFF80
1FFFFFC0
1FFFFFC0
1FFFFFC0
0FFFFF80
007E0000
007E0000
007E0000
007E0000
007E0000
007E0000
007E0000
007E0000
01FE0000
1FFFEFE0
7FFFFFE0
FFFFFFE0
FFFFFFE0
FFFFFFC0
7C01FF00
ENDCHAR
STARTCHAR currency
ENCODING 164
SWIDTH 611 0
DWIDTH 29 0
BBX 25 23 2 5
BITMAP
307F0600
79FFEF00
FFFFFF80
7FFFFF00
3FFFFE00
1FC1FE00
3F007E00
7E003F00
7E003F00
7C001F00
7C001F80
7C001F80
7C001F80
7C001F00
7E003F00
7E003F00
3F007E00
1FC1FE00
3FFFFE00
7FFFFF00
FFFFFF80
79FFCF00
307F0600
ENDCHAR
STARTCHAR yen
ENCODING 165
SWIDTH 611 0
DWIDTH 29 0
BBX 25 33 2 0
BITMAP
78000700
FC000F80
FC001F80
FE001F80
FE003F80
FE003F80
7F003F00
7F007F00
3F807F00
3F80FE00
1FC1FC00
7FE1FF00
7FF3FF80
7FFFFF80
7FFFFF80
3FFFFF00
00FF8000
1FFFFE00
3FFFFF00
3FFFFF00
3FFFFF00
3FFFFE00
007F0000
007F0000
007F0000
007F0000
007F0000
007F0000
007F0000
007F0000
003F0000
003E0000
001E0000
ENDCHAR
STARTCHAR brokenbar
ENCODING 166
SWIDTH 222 0
DWIDTH 11 0
BBX 5 41 3 -8
BITMAP
F8
F8
F8
F8
F8
F8
F8
F8
F8
F8
F8
F8
F8
F8
F8
F8
F8
00
00
00
00
00
00
00
F8
F8
F8
F8
F8
F8
F8
F8
F8
F8
F8
F8
F8
F8
F8
F8
F8
ENDCHAR
STARTCHAR section
ENCODING 167
SWIDTH 500 0
DWIDTH 24 0
BBX 20 33 2 0
BITMAP
07FFC0
1FFFE0
3FFFE0
3FFFE0
7FFFC0
7E0000
7E0000
7E0000
3F8000
3FF800
7FFE00
7FFF80
FFFFC0
F8FFE0
F81FF0
FC07F0
FE03F0
FFC1F0
7FFBF0
3FFFF0
1FFFF0
03FFE0
00FFE0
001FE0
0007E0
0003E0
0003E0
0007E0
7FFFE0
FFFFC0
FFFFC0
FFFF80
7FFC00
ENDCHAR
STARTCHAR dieresis
ENCODING 168
SWIDTH 278 0
DWIDTH 13 0
BBX 17 6 -2 28
BITMAP
380F00
7C1F80
FC1F80
FC1F80
7C1F80
380F00
ENDCHAR
STARTCHAR copyright
ENCODING 169
SWIDTH 800 0
DWIDTH 38 0
BBX 34 33 2 0
BITMAP
0007F80000
003FFF8000
00FFFFE000
03FFFFF000
07F803F800
0FE000FC00
1F80E07E00
3F07FC3F00
3E0FFF1F00
7C1FFF0F80
7C3F0F8F80
787E07C7C0
F87C03C7C0
F8780007C0
F8780003C0
F8F80003C0
F8F80003C0
F8F80003C0
F8780003C0
F87C03C7C0
F87C03C7C0
7C3E0787C0
7C3FFF8F80
3E1FFF0F80
3E07FE1F00
1F01F83F00
1F80007E00
0FE000FC00
07F803F800
03FFFFF000
00FFFFE000
003FFF8000
0007F80000
ENDCHAR
STARTCHAR ordfeminine
ENCODING 170
SWIDTH 334 0
DWIDTH 16 0
BBX 14 15 1 18
BITMAP
3FE0
7FF8
7FF8
007C
003C
0FFC
3FFC
7FFC
FC3C
F03C
F03C
F07C
FFFC
7FFC
1F98
ENDCHAR
STARTCHAR guillemotleft
ENCODING 171
SWIDTH 500 0
DWIDTH 24 0
BBX 19 19 3 3
BITMAP
070380
0F83C0
0F87C0
1F8FC0
3F0FC0
3F1F80
7E1F80
7E3F00
FC3F00
FC7E00
FC7F00
7E3F00
7E1F80
3F1F80
3F0FC0
1F8FC0
1F87E0
0F87C0
0703C0
ENDCHAR
STARTCHAR logicalnot
ENCODING 172
SWIDTH 600 0
DWIDTH 29 0
BBX 25 15 2 5
BITMAP
FFFFFF80
FFFFFF80
FFFFFF80
FFFFFF80
FFFFFF80
00000F80
00000F80
00000F80
00000F80
00000F80
00000F80
00000F80
00000F80
00000F80
00000F80
ENDCHAR
STARTCHAR uni00AD
ENCODING 173
SWIDTH 333 0
DWIDTH 16 0
BBX 12 5 2 10
BITMAP
7FE0
FFF0
FFF0
FFF0
7FE0
ENDCHAR
STARTCHAR registered
ENCODING 174
SWIDTH 800 0
DWIDTH 38 0
BBX 34 33 2 0
BITMAP
0007F80000
003FFF8000
00FFFFE000
03FFFFF000
07F803F800
0FE000FC00
1F80007E00
1F1FF83F00
3E1FFE1F00
7C1FFF0F80
7C1C0F8F80
7C1C0787C0
F81C0787C0
F81C0787C0
F81C0F83C0
F81FFF03C0
F81FFE03C0
F81FF803C0
F81C7003C0
F81C7807C0
F81C3C07C0
7C1C3C07C0
7C1C1E0F80
7C1C0E0F80
3E1C0F1F00
1F1C07BF00
1F80007E00
0FE000FC00
07F803F800
03FFFFF000
00FFFFC000
003FFF8000
0007F80000
ENDCHAR
STARTCHAR macron
ENCODING 175
SWIDTH 278 0
DWIDTH 13 0
BBX 15 4 -1 29
BITMAP
7FFE
FFFE
FFFE
7FFE
ENDCHAR
STARTCHAR degree
ENCODING 176
SWIDTH 400 0
DWIDTH 19 0
BBX 13 14 3 19
BITMAP
0F80
3FE0
7FF0
7870
F038
E038
E038
E038
E038
F038
78F0
7FF0
1FE0
0F80
ENDCHAR
STARTCHAR plusminus
ENCODING 177
SWIDTH 600 0
DWIDTH 29 0
BBX 25 24 2 0
BITMAP
003E0000
003E0000
003E0000
003E0000
003E0000
003E0000
FFFFFF80
FFFFFF80
FFFFFF80
FFFFFF80
FFFFFF80
003E0000
003E0000
003E0000
003E0000
003E0000
003E0000
00000000
00000000
FFFFFF80
FFFFFF80
FFFFFF80
FFFFFF80
FFFFFF80
ENDCHAR
STARTCHAR twosuperior
ENCODING 178
SWIDTH 366 0
DWIDTH 18 0
BBX 17 20 0 13
BITMAP
3FF800
7FFE00
7FFF00
3FFF00
001F00
001F00
001F00
003F00
007E00
01FC00
07F800
1FE000
3F8000
7E0000
7C0000
F80000
FFFF00
FFFF80
FFFF80
7FFF80
ENDCHAR
STARTCHAR threesuperior
ENCODING 179
SWIDTH 366 0
DWIDTH 18 0
BBX 17 20 0 13
BITMAP
7FFE00
FFFE00
7FFE00
3FFC00
00F800
07E000
1F8000
3FF800
3FFE00
1FFF00
003F80
000F80
000F80
000F80
000F80
001F80
7FFF00
FFFF00
FFFE00
FFF000
ENDCHAR
STARTCHAR acute
ENCODING 180
SWIDTH 278 0
DWIDTH 13 0
BBX 13 7 0 27
BITMAP
0038
01F8
0FF8
7FF8
FFF8
FF80
7800
ENDCHAR
STARTCHAR mu
ENCODING 181
SWIDTH 556 0
DWIDTH 27 0
BBX 21 33 3 -9
BITMAP
7800F0
F801F0
FC01F8
FC01F8
FC01F8
FC01F8
FC01F8
FC01F8
FC01F8
FC01F8
FC01F8
FC01F8
FC01F8
FC01F8
FC01F8
FC03F8
FC03F8
FE07F8
FF1FF8
FFFFF8
FFFFF8
FFFFF8
FFFDF0
FFF0F0
FC0000
FC0000
FC0000
FC0000
FC0000
FC0000
FC0000
F80000
780000
ENDCHAR
STARTCHAR paragraph
ENCODING 182
SWIDTH 620 0
DWIDTH 30 0
BBX 25 33 2 0
BITMAP
03FFFF80
1FFFFF80
3FFFFF80
7FFFFF80
FFFFFF80
FFFE0F80
FFFE0F80
FFFE0F80
FFFE0F80
FFFE0F80
FFFE0F80
FFFE0F80
7FFE0F80
7FFE0F80
3FFE0F80
1FFE0F80
03FE0F80
003E0F80
003E0F80
003E0F80
003E0F80
003E0F80
003E0F80
003E0F80
003E0F80
003E0F80
003E0F80
003E0F80
003E0F80
003E0F80
003E0F80
003E0F80
003E0F80
ENDCHAR
STARTCHAR periodcentered
ENCODING 183
SWIDTH 305 0
DWIDTH 15 0
BBX 7 7 4 9
BITMAP
78
FC
FE
FE
FE
FC
78
ENDCHAR
STARTCHAR cedilla
ENCODING 184
SWIDTH 278 0
DWIDTH 13 0
BBX 13 12 0 -10
BITMAP
0700
0600
0600
0600
0FE0
0FF0
00F8
0078
C078
FBF8
7FF0
1FC0
ENDCHAR
STARTCHAR onesuperior
ENCODING 185
SWIDTH 366 0
DWIDTH 18 0
BBX 15 20 1 13
BITMAP
0380
3FC0
FFC0
FFC0
7FC0
07C0
07C0
07C0
07C0
07C0
07C0
07C0
07C0
07C0
07C0
07C0
7FFC
FFFE
FFFE
7FFC
ENDCHAR
STARTCHAR ordmasculine
ENCODING 186
SWIDTH 334 0
DWIDTH 16 0
BBX 16 15 0 18
BITMAP
07E0
1FF8
3FFC
7E7E
781E
781E
F01F
F00F
F80F
781E
781E
7E7E
3FFC
1FF8
07E0
ENDCHAR
STARTCHAR guillemotright
ENCODING 187
SWIDTH 500 0
DWIDTH 24 0
BBX 19 19 2 3
BITMAP
381C00
783E00
FC3E00
7E3F00
7E3F80
3F1F80
3F0FC0
1F8FC0
1F87E0
0FC7E0
1FC7E0
1F8FC0
3F0FC0
3F1F80
7E1F80
7E3F00
FC3F00
7C3E00
781C00
ENDCHAR
STARTCHAR onequarter
ENCODING 188
SWIDTH 916 0
DWIDTH 44 0
BBX 42 33 1 0
BITMAP
03C000038000
7FC00007C000
FFC0000FC000
FFC0000FC000
7FC0001F8000
07C0003F8000
07C0007F0000
07C0007E0000
07C000FE0000
07C001FC0000
07C001F80000
07C003F00000
07C007F00000
07C007E00000
07C00FC1FC00
07C01FC3FC00
7FFC1F87FC00
FFFE3F0FFC00
FFFE7F1F3C00
7FFE7E3E3C00
0000FC7C3C00
0001FC783C00
0001F8F83C00
0003F0F03C00
0007F0F03C00
000FE1FFFF80
000FC1FFFFC0
001F81FFFFC0
003F80FFFFC0
003F00003C00
007E00003C00
003E00003C00
001C00003800
ENDCHAR
STARTCHAR onehalf
ENCODING 189
SWIDTH 916 0
DWIDTH 44 0
BBX 42 33 1 0
BITMAP
038000070000
7FC0000F8000
FFC0001F8000
FFC0003F8000
7FC0003F0000
07C0007E0000
07C000FE0000
07C000FC0000
07C001F80000
07C003F80000
07C003F00000
07C007E00000
07C00FE00000
07C01FDFF800
07C01FBFFE00
07C03F3FFF00
7FFC7F1FFF80
FFFE7E000F80
FFFEFC000F80
7FFDFC000F80
0001F8001F80
0003F0003F00
0007F000FE00
0007E003FC00
000FC00FF000
001FC01FC000
001F803F0000
003F003E0000
007E007C0000
00FE007FFF80
00FC007FFFC0
00F8007FFFC0
0070003FFFC0
ENDCHAR
STARTCHAR threequarters
ENCODING 190
SWIDTH 916 0
DWIDTH 44 0
BBX 43 33 1 0
BITMAP
3FFE0001C000
7FFF0003E000
7FFF0007E000
3FFE000FE000
00FC000FC000
03F0001F8000
0FC0003F8000
1FF8003F0000
1FFE007E0000
1FFF00FE0000
001F81FC0000
000FC1F80000
0007C3F80000
0007C7F00000
0007C7E07E00
000FCFC1FE00
3FFF9FC3FE00
7FFF1F87FE00
FFFE3F0F9E00
7FF87F1F1E00
00007E1E1E00
0000FC3E1E00
0001FC7C1E00
0001F87C1E00
0003F0781E00
0007F0FFFFC0
0007E0FFFFE0
000FC0FFFFE0
001F807FFFE0
003F80001E00
003F00001E00
003E00001E00
001C00001C00
ENDCHAR
STARTCHAR questiondown
ENCODING 191
SWIDTH 500 0
DWIDTH 24 0
BBX 21 32 2 -9
BITMAP
001C00
003F00
007F00
007F00
007F00
003F00
003E00
000000
000000
003E00
003E00
003F00
007F00
007E00
00FE00
01FE00
07FC00
0FF800
1FF000
3FC000
7F8000
FF0000
FE0000
FE0000
FC0000
FE0000
FF8000
FFFFF8
7FFFF8
3FFFF8
1FFFF8
07FFF0
ENDCHAR
STARTCHAR Agrave
ENCODING 192
SWIDTH 667 0
DWIDTH 32 0
BBX 30 41 1 0
BITMAP
00600000
007C0000
00FF8000
00FFF000
007FF800
000FF800
0000F800
00000000
00078000
001FC000
003FE000
003FF000
007FF000
00FFF800
00FDFC00
01FCFC00
01F87E00
03F07E00
03F03F00
07E03F00
07E03F80
0FC01F80
0FFC1F80
0FFF8FC0
1FFFEFC0
1FFFFFE0
3FFFFFE0
3F03FFE0
3F00FFF0
3F003FF0
7F000FF0
7E0007F8
7E0007F8
7E0003F8
FE0001F8
FE0001FC
FC0001FC
FC0001FC
FC0000FC
7C0000F8
78000070
ENDCHAR
STARTCHAR Aacute
ENCODING 193
SWIDTH 667 0
DWIDTH 32 0
BBX 30 41 1 0
BITMAP
00001000
0000F800
0007FC00
003FFC00
007FF800
007FC000
007C0000
00000000
00078000
001FC000
003FE000
003FF000
007FF000
00FFF800
00FDFC00
01FCFC00
01F87E00
03F07E00
03F03F00
07E03F00
07E03F80
0FC01F80
0FFC1F80
0FFF8FC0
1FFFEFC0
1FFFFFE0
3FFFFFE0
3F03FFE0
3F00FFF0
3F003FF0
7F000FF0
7E0007F8
7E0007F8
7E0003F8
FE0001F8
FE0001FC
FC0001FC
FC0001FC
FC0000FC
7C0000F8
78000070
ENDCHAR
STARTCHAR Acircumflex
ENCODING 194
SWIDTH 667 0
DWIDTH 32 0
BBX 30 41 1 0
BITMAP
00078000
000FC000
001FE000
003FF000
007CF800
00F87C00
00F03C00
00000000
00078000
001FC000
003FE000
003FF000
007FF000
00FFF800
00FDFC00
01FCFC00
01F87E00
03F07E00
03F03F00
07E03F00
07E03F80
0FC01F80
0FFC1F80
0FFF8FC0
1FFFEFC0
1FFFFFE0
3FFFFFE0
3F03FFE0
3F00FFF0
3F003FF0
7F000FF0
7E0007F8
7E0007F8
7E0003F8
FE0001F8
FE0001FC
FC0001FC
FC0001FC
FC0000FC
7C0000F8
78000070
ENDCHAR
STARTCHAR Atilde
ENCODING 195
SWIDTH 667 0
DWIDTH 32 0
BBX 30 41 1 0
BITMAP
00100600
007E0E00
00FFFE00
01FFFC00
01C7F800
0181F000
00000000
00000000
00078000
001FC000
003FE000
003FF000
007FF000
00FFF800
00FDFC00
01FCFC00
01F87E00
03F07E00
03F03F00
07E03F00
07E03F80
0FC01F80
0FFC1F80
0FFF8FC0
1FFFEFC0
1FFFFFE0
3FFFFFE0
3F03FFE0
3F00FFF0
3F003FF0
7F000FF0
7E0007F8
7E0007F8
7E0003F8
FE0001F8
FE0001FC
FC0001FC
FC0001FC
FC0000FC
7C0000F8
78000070
ENDCHAR
STARTCHAR Adieresis
ENCODING 196
SWIDTH 667 0
DWIDTH 32 0
BBX 30 40 1 0
BITMAP
00E01C00
01F03E00
01F87E00
01F87E00
01F03E00
00E01C00
00000000
00078000
001FC000
003FE000
003FF000
007FF000
00FFF800
00FDFC00
01FCFC00
01F87E00
03F07E00
03F03F00
07E03F00
07E03F80
0FC01F80
0FFC1F80
0FFF8FC0
1FFFEFC0
1FFFFFE0
3FFFFFE0
3F03FFE0
3F00FFF0
3F003FF0
7F000FF0
7E0007F8
7E0007F8
7E0003F8
FE0001F8
FE0001FC
FC0001FC
FC0001FC
FC0000FC
7C0000F8
78000070
ENDCHAR
STARTCHAR Aring
ENCODING 197
SWIDTH 667 0
DWIDTH 32 0
BBX 30 44 1 0
BITMAP
00078000
001FE000
001FE000
00387000
00387000
00387000
00387000
001FE000
001FE000
00078000
00000000
00078000
001FC000
003FE000
003FF000
007FF000
00FFF800
00FDFC00
01FCFC00
01F87E00
03F07E00
03F03F00
07E03F00
07E03F80
0FC01F80
0FFC1F80
0FFF8FC0
1FFFEFC0
1FFFFFE0
3FFFFFE0
3F03FFE0
3F00FFF0
3F003FF0
7F000FF0
7E0007F8
7E0007F8
7E0003F8
FE0001F8
FE0001FC
FC0001FC
FC0001FC
FC0000FC
7C0000F8
78000070
ENDCHAR
STARTCHAR AE
ENCODING 198
SWIDTH 889 0
DWIDTH 43 0
BBX 42 33 0 0
BITMAP
00003FFFFF80
0000FFFFFFC0
0001FFFFFFC0
0007FFFFFFC0
000FFFFFFF80
001FFFE00000
003FCFE00000
003F8FE00000
007F0FE00000
00FE0FE00000
01FC0FE00000
01F80FFFFF00
03F03FFFFF00
03F1FFFFFF00
07E7FFFFFF00
0FEFFFFFFE00
0FFFFFE00000
0FFFCFE00000
1FFE0FE00000
1FF80FE00000
3FF00FE00000
3FE00FE00000
7FC00FE00000
7F800FE00000
7F000FE00000
FE000FE00000
FE000FE00000
FC000FE00000
FC000FFFFF80
FC000FFFFFC0
F80007FFFFC0
F80007FFFFC0
700003FFFF80
ENDCHAR
STARTCHAR Ccedilla
ENCODING 199
SWIDTH 611 0
DWIDTH 29 0
BBX 26 42 2 -9
BITMAP
007FFF80
03FFFFC0
07FFFFC0
0FFFFFC0
1FFFFF80
3FFFFF00
3FC00000
7F800000
7F000000
FF000000
FE000000
FE000000
FE000000
FE000000
FE000000
FE000000
FE000000
FE000000
7F000000
7F000000
7F800000
3FC00000
3FE00000
1FF00000
1FF80000
0FFE0000
07FFC000
03FFFF80
00FFFFC0
007FFFC0
001FFFC0
0007FFC0
0003FF00
00030000
00070000
0007F000
0007F800
00007C00
00003C00
00707C00
007FF800
001FF000
ENDCHAR
STARTCHAR Egrave
ENCODING 200
SWIDTH 556 0
DWIDTH 27 0
BBX 22 41 3 0
BITMAP
070000
0FC000
0FF800
0FFF00
07FF80
007F80
000780
000000
7FFFF0
7FFFF8
FFFFFC
FFFFF8
FFFFF8
FE0000
FE0000
FE0000
FE0000
FE0000
FFFFF8
FFFFF8
FFFFF8
FFFFF8
FFFFF0
FE0000
FE0000
FE0000
FE0000
FE0000
FE0000
FE0000
FE0000
FE0000
FE0000
FE0000
FE0000
FE0000
FFFFF8
FFFFF8
FFFFFC
7FFFF8
3FFFF8
ENDCHAR
STARTCHAR Eacute
ENCODING 201
SWIDTH 556 0
DWIDTH 27 0
BBX 22 41 3 0
BITMAP
000380
001F80
00FF80
07FF80
0FFF80
0FF800
070000
000000
7FFFF0
7FFFF8
FFFFFC
FFFFF8
FFFFF8
FE0000
FE0000
FE0000
FE0000
FE0000
FFFFF8
FFFFF8
FFFFF8
FFFFF8
FFFFF0
FE0000
FE0000
FE0000
FE0000
FE0000
FE0000
FE0000
FE0000
FE0000
FE0000
FE0000
FE0000
FE0000
FFFFF8
FFFFF8
FFFFFC
7FFFF8
3FFFF8
ENDCHAR
STARTCHAR Ecircumflex
ENCODING 202
SWIDTH 556 0
DWIDTH 27 0
BBX 22 41 3 0
BITMAP
00F800
01FC00
03FE00
07DF00
078F80
0F07C0
1F03C0
000000
7FFFF0
7FFFF8
FFFFFC
FFFFF8
FFFFF8
FE0000
FE0000
FE0000
FE0000
FE0000
FFFFF8
FFFFF8
FFFFF8
FFFFF8
FFFFF0
FE0000
FE0000
FE0000
FE0000
FE0000
FE0000
FE0000
FE0000
FE0000
FE0000
FE0000
FE0000
FE0000
FFFFF8
FFFFF8
FFFFFC
7FFFF8
3FFFF8
ENDCHAR
STARTCHAR Edieresis
ENCODING 203
SWIDTH 556 0
DWIDTH 27 0
BBX 22 41 3 0
BITMAP
0E03C0
1F07E0
3F07E0
3F07E0
1F07E0
0E03C0
000000
000000
7FFFF0
7FFFF8
FFFFFC
FFFFF8
FFFFF8
FE0000
FE0000
FE0000
FE0000
FE0000
FFFFF8
FFFFF8
FFFFF8
FFFFF8
FFFFF0
FE0000
FE0000
FE0000
FE0000
FE0000
FE0000
FE0000
FE0000
FE0000
FE0000
FE0000
FE0000
FE0000
FFFFF8
FFFFF8
FFFFFC
7FFFF8
3FFFF8
ENDCHAR
STARTCHAR Igrave
ENCODING 204
SWIDTH 278 0
DWIDTH 13 0
BBX 13 41 0 0
BITMAP
6000
FC00
FF80
FFF0
FFF8
0FF8
00F8
0000
0700
0F80
0FC0
0FC0
0FC0
0FC0
0FC0
0FC0
0FC0
0FC0
0FC0
0FC0
0FC0
0FC0
0FC0
0FC0
0FC0
0FC0
0FC0
0FC0
0FC0
0FC0
0FC0
0FC0
0FC0
0FC0
0FC0
0FC0
0FC0
0FC0
0FC0
0F80
0780
ENDCHAR
STARTCHAR Iacute
ENCODING 205
SWIDTH 278 0
DWIDTH 13 0
BBX 13 41 0 0
BITMAP
0030
01F8
0FF8
3FF8
FFF8
FF80
7800
0000
0700
0F80
0FC0
0FC0
0FC0
0FC0
0FC0
0FC0
0FC0
0FC0
0FC0
0FC0
0FC0
0FC0
0FC0
0FC0
0FC0
0FC0
0FC0
0FC0
0FC0
0FC0
0FC0
0FC0
0FC0
0FC0
0FC0
0FC0
0FC0
0FC0
0FC0
0F80
0780
ENDCHAR
STARTCHAR Icircumflex
ENCODING 206
SWIDTH 278 0
DWIDTH 13 0
BBX 15 41 -1 0
BITMAP
07C0
0FE0
1FF0
3EF8
3C7C
7C3E
F81E
0000
0380
07C0
07E0
07E0
07E0
07E0
07E0
07E0
07E0
07E0
07E0
07E0
07E0
07E0
07E0
07E0
07E0
07E0
07E0
07E0
07E0
07E0
07E0
07E0
07E0
07E0
07E0
07E0
07E0
07E0
07E0
07C0
03C0
ENDCHAR
STARTCHAR Idieresis
ENCODING 207
SWIDTH 278 0
DWIDTH 13 0
BBX 17 41 -2 0
BITMAP
380F00
7C1F80
FC1F80
FC1F80
7C1F80
380F00
000000
000000
01C000
03E000
03F000
03F000
03F000
03F000
03F000
03F000
03F000
03F000
03F000
03F000
03F000
03F000
03F000
03F000
03F000
03F000
03F000
03F000
03F000
03F000
03F000
03F000
03F000
03F000
03F000
03F000
03F000
03F000
03F000
03E000
01E000
ENDCHAR
STARTCHAR Eth
ENCODING 208
SWIDTH 667 0
DWIDTH 32 0
BBX 30 33 0 0
BITMAP
07F80000
0FFF8000
1FFFF000
1FFFF800
1FFFFE00
1FFFFF00
1F83FF80
1F80FFC0
1F803FE0
1F801FE0
1F800FF0
1F8007F8
1F8007F8
7FFF03F8
FFFF83FC
FFFF81FC
FFFF81FC
7FFF01FC
1F8001FC
1F8001FC
1F8001FC
1F8001FC
1F8001FC
1F8001FC
1F8003F8
1F8007F8
1F801FF8
1FFFFFF0
1FFFFFE0
1FFFFFC0
1FFFFF80
1FFFFF00
07FFF800
ENDCHAR
STARTCHAR Ntilde
ENCODING 209
SWIDTH 611 0
DWIDTH 29 0
BBX 23 41 3 0
BITMAP
01C030
03F870
07FFE0
0FFFE0
0C3FC0
080300
000000
000000
3C003C
7E003E
FF007E
FF807E
FFC07E
FFE07E
FFF07E
FFF87E
FFFE7E
FDFFFE
FCFFFE
FC3FFE
FC1FFE
FC07FE
FC01FE
FC007E
FC007E
FC007E
FC007E
FC007E
FC007E
FC007E
FC007E
FC007E
FC007E
FC007E
FC007E
FC007E
FC007E
FC007E
FC007E
FC003E
78003C
ENDCHAR
STARTCHAR Ograve
ENCODING 210
SWIDTH 722 0
DWIDTH 35 0
BBX 31 41 2 0
BITMAP
00200000
007C0000
007F8000
007FF000
007FFC00
000FFC00
0000F800
00000000
001FE000
00FFFC00
01FFFF00
07FFFF80
0FFFFFC0
1FFFFFE0
1FE01FF0
3FC007F8
7F8003F8
7F0003FC
7F0001FC
FE0001FC
FE0000FE
FE0000FE
FE0000FE
FE0000FE
FE0000FE
FE0000FE
FE0000FE
FE0000FE
FE0000FE
FE0001FC
7F0001FC
7F0003FC
7F8003F8
3FC007F8
1FE01FF0
1FFEFFE0
0FFFFFC0
07FFFF80
01FFFF00
007FFC00
001FE000
ENDCHAR
STARTCHAR Oacute
ENCODING 211
SWIDTH 722 0
DWIDTH 35 0
BBX 31 41 2 0
BITMAP
00000800
0000FC00
0007FC00
001FFC00
007FFC00
007FE000
007C0000
00000000
001FE000
00FFFC00
01FFFF00
07FFFF80
0FFFFFC0
1FFFFFE0
1FE01FF0
3FC007F8
7F8003F8
7F0003FC
7F0001FC
FE0001FC
FE0000FE
FE0000FE
FE0000FE
FE0000FE
FE0000FE
FE0000FE
FE0000FE
FE0000FE
FE0000FE
FE0001FC
7F0001FC
7F0003FC
7F8003F8
3FC007F8
1FE01FF0
1FFEFFE0
0FFFFFC0
07FFFF80
01FFFF00
007FFC00
001FE000
ENDCHAR
STARTCHAR Ocircumflex
ENCODING 212
SWIDTH 722 0
DWIDTH 35 0
BBX 31 41 2 0
BITMAP
00078000
000FC000
001FE000
003EF000
003CF800
007C7C00
00F83E00
00000000
001FE000
00FFFC00
01FFFF00
07FFFF80
0FFFFFC0
1FFFFFE0
1FE01FF0
3FC007F8
7F8003F8
7F0003FC
7F0001FC
FE0001FC
FE0000FE
FE0000FE
FE0000FE
FE0000FE
FE0000FE
FE0000FE
FE0000FE
FE0000FE
FE0000FE
FE0001FC
7F0001FC
7F0003FC
7F8003F8
3FC007F8
1FE01FF0
1FFEFFE0
0FFFFFC0
07FFFF80
01FFFF00
007FFC00
001FE000
ENDCHAR
STARTCHAR Otilde
ENCODING 213
SWIDTH 722 0
DWIDTH 35 0
BBX 31 41 2 0
BITMAP
00100600
007F0600
00FFFE00
00FFFC00
01C7FC00
0180F000
00000000
00000000
001FE000
00FFFC00
01FFFF00
07FFFF80
0FFFFFC0
1FFFFFE0
1FE01FF0
3FC007F8
7F8003F8
7F0003FC
7F0001FC
FE0001FC
FE0000FE
FE0000FE
FE0000FE
FE0000FE
FE0000FE
FE0000FE
FE0000FE
FE0000FE
FE0000FE
FE0001FC
7F0001FC
7F0003FC
7F8003F8
3FC007F8
1FE01FF0
1FFEFFE0
0FFFFFC0
07FFFF80
01FFFF00
007FFC00
001FE000
ENDCHAR
STARTCHAR Odieresis
ENCODING 214
SWIDTH 722 0
DWIDTH 35 0
BBX 31 40 2 0
BITMAP
00F01C00
01F03E00
01F83F00
01F83F00
01F03E00
00E01C00
00000000
001FE000
00FFFC00
01FFFF00
07FFFF80
0FFFFFC0
1FFFFFE0
1FE01FF0
3FC007F8
7F8003F8
7F0003FC
7F0001FC
FE0001FC
FE0000FE
FE0000FE
FE0000FE
FE0000FE
FE0000FE
FE0000FE
FE0000FE
FE0000FE
FE0000FE
FE0001FC
7F0001FC
7F0003FC
7F8003F8
3FC007F8
1FE01FF0
1FFEFFE0
0FFFFFC0
07FFFF80
01FFFF00
007FFC00
001FE000
ENDCHAR
STARTCHAR multiply
ENCODING 215
SWIDTH 600 0
DWIDTH 29 0
BBX 25 24 2 0
BITMAP
10000400
38000E00
7C001F00
FE007F80
7F00FF00
3F81FE00
1FC3FC00
0FE7F800
07FFF000
03FFE000
01FF8000
00FF0000
00FF0000
01FF8000
03FFC000
07FFE000
0FE7F800
1FC3FC00
3F81FE00
7F00FF00
FE007F80
7C001F00
38000E00
10000400
ENDCHAR
STARTCHAR Oslash
ENCODING 216
SWIDTH 722 0
DWIDTH 35 0
BBX 31 43 2 -5
BITMAP
00000100
000003C0
000007C0
000007C0
00000FC0
001FEFC0
00FFFF80
01FFFF80
07FFFF80
0FFFFFC0
1FFFFFE0
1FE07FF0
3FC0FFF8
7F80FFF8
7F01FBFC
7F01F9FC
FE03F1FC
FE03F0FE
FE07E0FE
FE07E0FE
FE0FC0FE
FE0FC0FE
FE1F80FE
FE1F80FE
FE3F80FE
FE3F00FE
FE7F01FC
7F7E01FC
7FFE03FC
7FFC03F8
3FFC07F8
1FF81FF0
1FFEFFE0
0FFFFFC0
07FFFF80
07FFFF00
07FFFC00
0FDFE000
0FC00000
1F800000
1F800000
0F000000
02000000
ENDCHAR
STARTCHAR Ugrave
ENCODING 217
SWIDTH 611 0
DWIDTH 29 0
BBX 25 41 2 0
BITMAP
01800000
03F00000
03FE0000
03FFC000
03FFE000
003FE000
0003E000
00000000
1E001C00
3E003E00
3F003E00
3F003E00
3F003E00
3F003F00
3F003F00
3E003F00
7E003F00
7E003F00
7E003F00
7E003F00
7E003F00
7E003F00
7E001F00
7E001F00
7C001F80
7C001F80
7C001F80
FC001F80
FC001F80
FC001F80
FC001F80
7E001F80
7E003F00
7F007F00
7F80FF00
3FF7FE00
1FFFFE00
1FFFFC00
07FFF800
03FFE000
007F0000
ENDCHAR
STARTCHAR Uacute
ENCODING 218
SWIDTH 611 0
DWIDTH 29 0
BBX 25 41 2 0
BITMAP
0000C000
0007E000
003FE000
00FFE000
03FFE000
03FE0000
01E00000
00000000
1E001C00
3E003E00
3F003E00
3F003E00
3F003E00
3F003F00
3F003F00
3E003F00
7E003F00
7E003F00
7E003F00
7E003F00
7E003F00
7E003F00
7E001F00
7E001F00
7C001F80
7C001F80
7C001F80
FC001F80
FC001F80
FC001F80
FC001F80
7E001F80
7E003F00
7F007F00
7F80FF00
3FF7FE00
1FFFFE00
1FFFFC00
07FFF800
03FFE000
007F0000
ENDCHAR
STARTCHAR Ucircumflex
ENCODING 219
SWIDTH 611 0
DWIDTH 29 0
BBX 25 41 2 0
BITMAP
003E0000
007F0000
00FF8000
00F7C000
01E3E000
03E1F000
07C0F000
00000000
1E001C00
3E003E00
3F003E00
3F003E00
3F003E00
3F003F00
3F003F00
3E003F00
7E003F00
7E003F00
7E003F00
7E003F00
7E003F00
7E003F00
7E001F00
7E001F00
7C001F80
7C001F80
7C001F80
FC001F80
FC001F80
FC001F80
FC001F80
7E001F80
7E003F00
7F007F00
7F80FF00
3FF7FE00
1FFFFE00
1FFFFC00
07FFF800
03FFE000
007F0000
ENDCHAR
STARTCHAR Udieresis
ENCODING 220
SWIDTH 611 0
DWIDTH 29 0
BBX 25 41 2 0
BITMAP
0380F000
07C1F800
0FC1F800
0FC1F800
07C1F800
0380F000
00000000
00000000
1E001C00
3E003E00
3F003E00
3F003E00
3F003E00
3F003F00
3F003F00
3E003F00
7E003F00
7E003F00
7E003F00
7E003F00
7E003F00
7E003F00
7E001F00
7E001F00
7C001F80
7C001F80
7C001F80
FC001F80
FC001F80
FC001F80
FC001F80
7E001F80
7E003F00
7F007F00
7F80FF00
3FF7FE00
1FFFFE00
1FFFFC00
07FFF800
03FFE000
007F0000
ENDCHAR
STARTCHAR Yacute
ENCODING 221
SWIDTH 556 0
DWIDTH 27 0
BBX 25 41 1 0
BITMAP
0000E000
0007E000
001FF000
00FFF000
03FFE000
03FF0000
01E00000
00000000
70000F00
F8001F80
FC001F80
FC003F80
FE003F80
FE003F00
7E007F00
7F007F00
3F80FE00
3F80FE00
1FC1FC00
1FE3F800
0FF7F800
07FFF000
03FFE000
01FFC000
00FF8000
007F0000
007F0000
007F0000
007F0000
007F0000
007F0000
007F0000
007F0000
007F0000
007F0000
007F0000
007F0000
007F0000
007E0000
007E0000
003C0000
ENDCHAR
STARTCHAR Thorn
ENCODING 222
SWIDTH 556 0
DWIDTH 27 0
BBX 24 33 3 0
BITMAP
380000
7C0000
FC0000
FC0000
FC0000
FC0000
FFFFF0
FFFFFC
FFFFFC
FFFFFE
FFFFFE
FC007F
FC003F
FC003F
FC007F
FC00FE
FC01FE
FC07FC
FC3FF8
FDFFF0
FFFFE0
FFFF80
FFFE00
FFF000
FF8000
FC0000
FC0000
FC0000
FC0000
FC0000
FC0000
7C0000
380000
ENDCHAR
STARTCHAR germandbls
ENCODING 223
SWIDTH 556 0
DWIDTH 27 0
BBX 26 33 -1 0
BITMAP
00FF8000
03FFF000
07FFF800
07FFFC00
07FFFC00
0FE0FC00
0FC07C00
0FC07C00
0FC0FC00
7FC1F800
7FC7F000
FFCFE000
FFDFC000
7FDF8000
0FFF0000
0FFF8000
0FFFF000
0FDFFC00
0FCFFF00
0FC3FF80
0FC07FC0
0FC01FC0
0FC00FC0
0FC007C0
0FC007C0
0FC00FC0
0FC00FC0
0FC07FC0
0FFFFF80
0FFFFF80
0FFFFF00
0FFFFE00
07FFF000
ENDCHAR
STARTCHAR agrave
ENCODING 224
SWIDTH 556 0
DWIDTH 27 0
BBX 22 33 1 0
BITMAP
03C000
07F800
07FF00
07FFC0
00FFE0
000FC0
000080
000000
000000
1FFF80
3FFFE0
3FFFF0
3FFFF8
1FFFF8
0001F8
0000F8
0000FC
007FFC
03FFFC
0FFFFC
3FFFFC
3FFCFC
7F80FC
7E00FC
FC00FC
FC00FC
FC01FC
7E03FC
7FFFFC
3FFFFC
3FFFFC
0FFE78
03F878
ENDCHAR
STARTCHAR aacute
ENCODING 225
SWIDTH 556 0
DWIDTH 27 0
BBX 22 33 1 0
BITMAP
0003C0
001FE0
00FFE0
03FFE0
03FF00
03F000
000000
000000
000000
1FFF80
3FFFE0
3FFFF0
3FFFF8
1FFFF8
0001F8
0000F8
0000FC
007FFC
03FFFC
0FFFFC
3FFFFC
3FFCFC
7F80FC
7E00FC
FC00FC
FC00FC
FC01FC
7E03FC
7FFFFC
3FFFFC
3FFFFC
0FFE78
03F878
ENDCHAR
STARTCHAR acircumflex
ENCODING 226
SWIDTH 556 0
DWIDTH 27 0
BBX 22 33 1 0
BITMAP
003C00
007E00
00FF00
01FF80
03E7C0
03C3E0
0781E0
000000
000000
1FFF80
3FFFE0
3FFFF0
3FFFF8
1FFFF8
0001F8
0000F8
0000FC
007FFC
03FFFC
0FFFFC
3FFFFC
3FFCFC
7F80FC
7E00FC
FC00FC
FC00FC
FC01FC
7E03FC
7FFFFC
3FFFFC
3FFFFC
0FFE78
03F878
ENDCHAR
STARTCHAR atilde
ENCODING 227
SWIDTH 556 0
DWIDTH 27 0
BBX 22 33 1 0
BITMAP
00C030
03F870
07FFF0
0FFFE0
0E3FC0
0C0300
000000
000000
000000
1FFF80
3FFFE0
3FFFF0
3FFFF8
1FFFF8
0001F8
0000F8
0000FC
007FFC
03FFFC
0FFFFC
3FFFFC
3FFCFC
7F80FC
7E00FC
FC00FC
FC00FC
FC01FC
7E03FC
7FFFFC
3FFFFC
3FFFFC
0FFE78
03F878
ENDCHAR
STARTCHAR adieresis
ENCODING 228
SWIDTH 556 0
DWIDTH 27 0
BBX 22 33 1 0
BITMAP
0700E0
0F81F0
0FC3F0
0FC3F0
0F81F0
0700E0
000000
000000
000000
1FFF80
3FFFE0
3FFFF0
3FFFF8
1FFFF8
0001F8
0000F8
0000FC
007FFC
03FFFC
0FFFFC
3FFFFC
3FFCFC
7F80FC
7E00FC
FC00FC
FC00FC
FC01FC
7E03FC
7FFFFC
3FFFFC
3FFFFC
0FFE78
03F878
ENDCHAR
STARTCHAR aring
ENCODING 229
SWIDTH 556 0
DWIDTH 27 0
BBX 22 37 1 0
BITMAP
003C00
00FF00
00FF80
01C380
01C380
01C380
01C380
00FF80
00FF00
003C00
000000
000000
000000
1FFF80
3FFFE0
3FFFF0
3FFFF8
1FFFF8
0001F8
0000F8
0000FC
007FFC
03FFFC
0FFFFC
3FFFFC
3FFCFC
7F80FC
7E00FC
FC00FC
FC00FC
FC01FC
7E03FC
7FFFFC
3FFFFC
3FFFFC
0FFE78
03F878
ENDCHAR
STARTCHAR ae
ENCODING 230
SWIDTH 778 0
DWIDTH 37 0
BBX 36 24 1 0
BITMAP
3FFE03F800
7FFF8FFE00
7FFFFFFF00
7FFFFFFF80
3FFFFFFFC0
0007FC0FE0
0003F807E0
0003F003F0
00FFFFFFF0
0FFFFFFFF0
1FFFFFFFE0
7FFFFFFFE0
7FF3F00000
FF03F00000
FC03F00000
F803F80000
F803F80000
FC03FC0000
FE0FFF0000
FFFFFFFFE0
FFFFFFFFF0
7FFFFFFFF0
3FFF8FFFF0
07FC03FFE0
ENDCHAR
STARTCHAR ccedilla
ENCODING 231
SWIDTH 500 0
DWIDTH 24 0
BBX 22 33 2 -9
BITMAP
03FFF0
0FFFF8
1FFFF8
3FFFF8
7FFFF8
7FE000
FF0000
FE0000
FC0000
FC0000
FC0000
FC0000
FC0000
FC0000
FE0000
7F0000
7F8000
3FE000
1FFF80
1FFFF8
07FFFC
03FFFC
00FFFC
001FF0
003800
003000
003F00
003FC0
0003C0
0003E0
0383C0
03FFC0
01FF00
ENDCHAR
STARTCHAR egrave
ENCODING 232
SWIDTH 556 0
DWIDTH 27 0
BBX 23 33 2 0
BITMAP
078000
07F000
07FE00
07FF80
03FFC0
001FC0
000180
000000
000000
00FF00
03FFC0
0FFFE0
1FFFF8
3FFFF8
7F83FC
7F00FC
FE00FE
FC007E
FFFFFE
FFFFFE
FFFFFE
FFFFFE
FC0000
FC0000
FC0000
FE0000
7F0000
7FE000
3FFFFC
1FFFFE
0FFFFE
03FFFE
007FFC
ENDCHAR
STARTCHAR eacute
ENCODING 233
SWIDTH 556 0
DWIDTH 27 0
BBX 23 33 2 0
BITMAP
0003C0
001FC0
00FFC0
03FFC0
07FF80
07F800
038000
000000
000000
00FF00
03FFC0
0FFFE0
1FFFF8
3FFFF8
7F83FC
7F00FC
FE00FE
FC007E
FFFFFE
FFFFFE
FFFFFE
FFFFFE
FC0000
FC0000
FC0000
FE0000
7F0000
7FE000
3FFFFC
1FFFFE
0FFFFE
03FFFE
007FFC
ENDCHAR
STARTCHAR ecircumflex
ENCODING 234
SWIDTH 556 0
DWIDTH 27 0
BBX 23 33 2 0
BITMAP
007C00
00FE00
00FF00
01EF00
03E780
07C7C0
0F83E0
000000
000000
00FF00
03FFC0
0FFFE0
1FFFF8
3FFFF8
7F83FC
7F00FC
FE00FE
FC007E
FFFFFE
FFFFFE
FFFFFE
FFFFFE
FC0000
FC0000
FC0000
FE0000
7F0000
7FE000
3FFFFC
1FFFFE
0FFFFE
03FFFE
007FFC
ENDCHAR
STARTCHAR edieresis
ENCODING 235
SWIDTH 556 0
DWIDTH 27 0
BBX 23 33 2 0
BITMAP
0701E0
0F83F0
1F83F0
1F83F0
0F83F0
0701E0
000000
000000
000000
00FF00
03FFC0
0FFFE0
1FFFF8
3FFFF8
7F83FC
7F00FC
FE00FE
FC007E
FFFFFE
FFFFFE
FFFFFE
FFFFFE
FC0000
FC0000
FC0000
FE0000
7F0000
7FE000
3FFFFC
1FFFFE
0FFFFE
03FFFE
007FFC
ENDCHAR
STARTCHAR igrave
ENCODING 236
SWIDTH 278 0
DWIDTH 13 0
BBX 13 33 0 0
BITMAP
F000
FE00
FFC0
FFF8
7FF8
03F8
0030
0000
0000
0700
0F80
0FC0
0FC0
0FC0
0FC0
0FC0
0FC0
0FC0
0FC0
0FC0
0FC0
0FC0
0FC0
0FC0
0FC0
0FC0
0FC0
0FC0
0FC0
0FC0
0FC0
0F80
0700
ENDCHAR
STARTCHAR iacute
ENCODING 237
SWIDTH 278 0
DWIDTH 13 0
BBX 13 33 0 0
BITMAP
0078
03F8
1FF8
7FF8
FFF0
FF00
7000
0000
0000
0700
0F80
0FC0
0FC0
0FC0
0FC0
0FC0
0FC0
0FC0
0FC0
0FC0
0FC0
0FC0
0FC0
0FC0
0FC0
0FC0
0FC0
0FC0
0FC0
0FC0
0FC0
0F80
0700
ENDCHAR
STARTCHAR icircumflex
ENCODING 238
SWIDTH 278 0
DWIDTH 13 0
BBX 15 33 -1 0
BITMAP
03C0
0FE0
0FF0
1EF8
3E78
7C7C
F83E
0000
0000
0380
07C0
07E0
07E0
07E0
07E0
07E0
07E0
07E0
07E0
07E0
07E0
07E0
07E0
07E0
07E0
07E0
07E0
07E0
07E0
07E0
07E0
07C0
0380
ENDCHAR
STARTCHAR idieresis
ENCODING 239
SWIDTH 278 0
DWIDTH 13 0
BBX 17 33 -2 0
BITMAP
380F00
7C1F80
FC1F80
FC1F80
7C1F80
380F00
000000
000000
000000
01C000
03E000
03F000
03F000
03F000
03F000
03F000
03F000
03F000
03F000
03F000
03F000
03F000
03F000
03F000
03F000
03F000
03F000
03F000
03F000
03F000
03F000
03E000
01C000
ENDCHAR
STARTCHAR eth
ENCODING 240
SWIDTH 556 0
DWIDTH 27 0
BBX 23 34 2 0
BITMAP
0000C0
1F03E0
1FF7E0
1FFFC0
1FFF80
07FF00
01FF80
07FFC0
07EFE0
0787F0
0303F0
0003F8
01F9F8
07FFF8
1FFFFC
3FFFFC
3FFFFC
7F83FC
7F01FE
FE00FE
FC00FE
FC00FE
FC007E
FC007E
FC00FC
FE00FC
7E00FC
7F01F8
7F83F8
3FFFF0
1FFFF0
0FFFE0
07FF80
00FE00
ENDCHAR
STARTCHAR ntilde
ENCODING 241
SWIDTH 556 0
DWIDTH 27 0
BBX 21 33 3 0
BITMAP
030060
07F0E0
0FFFC0
1FFFC0
187F80
100600
000000
000000
000000
787E00
F9FF80
FFFFC0
FFFFE0
FFFFF0
FF87F0
FE03F0
FE01F8
FC01F8
FC01F8
FC01F8
FC01F8
FC01F8
FC01F8
FC01F8
FC01F8
FC01F8
FC01F8
FC01F8
FC01F8
FC01F8
FC01F8
F801F0
7800F0
ENDCHAR
STARTCHAR ograve
ENCODING 242
SWIDTH 556 0
DWIDTH 27 0
BBX 23 33 2 0
BITMAP
078000
07F000
07FE00
07FF80
03FFC0
003FC0
000380
000000
000000
00FE00
07FF80
0FFFE0
1FFFF0
3FFFF8
7FC7F8
7F01FC
FE00FC
FC00FE
FC007E
FC007E
FC007E
FC007E
FC007E
FC007E
FC00FE
FE00FC
7F01FC
7F87F8
3FFFF8
1FFFF0
0FFFE0
07FFC0
01FE00
ENDCHAR
STARTCHAR oacute
ENCODING 243
SWIDTH 556 0
DWIDTH 27 0
BBX 23 33 2 0
BITMAP
000380
001FC0
00FFC0
07FFC0
07FF80
07F800
030000
000000
000000
00FE00
07FF80
0FFFE0
1FFFF0
3FFFF8
7FC7F8
7F01FC
FE00FC
FC00FE
FC007E
FC007E
FC007E
FC007E
FC007E
FC007E
FC00FE
FE00FC
7F01FC
7F87F8
3FFFF8
1FFFF0
0FFFE0
07FFC0
01FE00
ENDCHAR
STARTCHAR ocircumflex
ENCODING 244
SWIDTH 556 0
DWIDTH 27 0
BBX 23 33 2 0
BITMAP
007C00
00FE00
01FE00
03EF00
03CF80
07C7C0
0F83E0
000000
000000
00FE00
07FF80
0FFFE0
1FFFF0
3FFFF8
7FC7F8
7F01FC
FE00FC
FC00FE
FC007E
FC007E
FC007E
FC007E
FC007E
FC007E
FC00FE
FE00FC
7F01FC
7F87F8
3FFFF8
1FFFF0
0FFFE0
07FFC0
01FE00
ENDCHAR
STARTCHAR otilde
ENCODING 245
SWIDTH 556 0
DWIDTH 27 0
BBX 23 33 2 0
BITMAP
018060
07F060
0FFFE0
0FFFC0
1C3F80
180700
000000
000000
000000
00FE00
07FF80
0FFFE0
1FFFF0
3FFFF8
7FC7F8
7F01FC
FE00FC
FC00FE
FC007E
FC007E
FC007E
FC007E
FC007E
FC007E
FC00FE
FE00FC
7F01FC
7F87F8
3FFFF8
1FFFF0
0FFFE0
07FFC0
01FE00
ENDCHAR
STARTCHAR odieresis
ENCODING 246
SWIDTH 556 0
DWIDTH 27 0
BBX 23 33 2 0
BITMAP
0E01C0
1F03E0
1F83F0
1F83F0
1F83E0
0F01C0
000000
000000
000000
00FE00
07FF80
0FFFE0
1FFFF0
3FFFF8
7FC7F8
7F01FC
FE00FC
FC00FE
FC007E
FC007E
FC007E
FC007E
FC007E
FC007E
FC00FE
FE00FC
7F01FC
7F87F8
3FFFF8
1FFFF0
0FFFE0
07FFC0
01FE00
ENDCHAR
STARTCHAR divide
ENCODING 247
SWIDTH 600 0
DWIDTH 29 0
BBX 25 28 2 -2
BITMAP
003E0000
007F0000
007F0000
00FF0000
00FF0000
007F0000
007F0000
003C0000
00000000
00000000
00000000
FFFFFF80
FFFFFF80
FFFFFF80
FFFFFF80
FFFFFF80
00000000
00000000
00000000
00000000
003E0000
007F0000
007F0000
00FF0000
00FF0000
007F0000
007F0000
003C0000
ENDCHAR
STARTCHAR oslash
ENCODING 248
SWIDTH 556 0
DWIDTH 27 0
BBX 23 32 2 -4
BITMAP
000010
000078
000078
0000F8
00FEF0
07FFF0
0FFFE0
1FFFF0
3FFFF8
7FC7F8
7F07FC
FE0FFC
FC1EFE
FC1E7E
FC3C7E
FC3C7E
FC787E
FCF07E
FCF07E
FDE0FE
FFE0FC
7FC1FC
7F87F8
3FFFF8
1FFFF0
1FFFE0
1FFFC0
3EFE00
3C0000
7C0000
780000
380000
ENDCHAR
STARTCHAR ugrave
ENCODING 249
SWIDTH 556 0
DWIDTH 27 0
BBX 21 33 3 0
BITMAP
0F0000
0FE000
0FFC00
0FFF00
07FF80
007F80
000700
000000
000000
7800F0
F801F0
FC01F8
FC01F8
FC01F8
FC01F8
FC01F8
FC01F8
FC01F8
FC01F8
FC01F8
FC01F8
FC01F8
FC01F8
FC01F8
FC03F8
FC03F8
FE07F8
FF1FF8
7FFFF8
7FFFF8
3FFFF8
1FFDF0
07F0F0
ENDCHAR
STARTCHAR uacute
ENCODING 250
SWIDTH 556 0
DWIDTH 27 0
BBX 21 33 3 0
BITMAP
000700
003F80
01FF80
0FFF80
0FFF00
0FF000
060000
000000
000000
7800F0
F801F0
FC01F8
FC01F8
FC01F8
FC01F8
FC01F8
FC01F8
FC01F8
FC01F8
FC01F8
FC01F8
FC01F8
FC01F8
FC01F8
FC03F8
FC03F8
FE07F8
FF1FF8
7FFFF8
7FFFF8
3FFFF8
1FFDF0
07F0F0
ENDCHAR
STARTCHAR ucircumflex
ENCODING 251
SWIDTH 556 0
DWIDTH 27 0
BBX 21 33 3 0
BITMAP
00F800
01FC00
03FC00
07DE00
079F00
0F8F80
1F07C0
000000
000000
7800F0
F801F0
FC01F8
FC01F8
FC01F8
FC01F8
FC01F8
FC01F8
FC01F8
FC01F8
FC01F8
FC01F8
FC01F8
FC01F8
FC01F8
FC03F8
FC03F8
FE07F8
FF1FF8
7FFFF8
7FFFF8
3FFFF8
1FFDF0
07F0F0
ENDCHAR
STARTCHAR udieresis
ENCODING 252
SWIDTH 556 0
DWIDTH 27 0
BBX 21 33 3 0
BITMAP
1C0380
3E07C0
3F07E0
3F07E0
3F07C0
1E0380
000000
000000
000000
7800F0
F801F0
FC01F8
FC01F8
FC01F8
FC01F8
FC01F8
FC01F8
FC01F8
FC01F8
FC01F8
FC01F8
FC01F8
FC01F8
FC01F8
FC03F8
FC03F8
FE07F8
FF1FF8
7FFFF8
7FFFF8
3FFFF8
1FFDF0
07F0F0
ENDCHAR
STARTCHAR yacute
ENCODING 253
SWIDTH 500 0
DWIDTH 24 0
BBX 21 42 2 -9
BITMAP
000F00
003F80
01FF80
0FFF80
0FFE00
0FE000
0E0000
000000
000000
700070
F800F8
F800F8
F801F8
F801F8
FC01F8
FC01F8
FC01F0
FC03F0
7C03F0
7E03E0
7E07E0
3E07E0
3F07C0
3F0FC0
1F8F80
1F9F80
0FDF00
0FFF00
07FF00
03FE00
03FE00
01FC00
01F800
01F800
03F000
07F000
0FE000
1FC000
1F8000
1F8000
1F0000
0E0000
ENDCHAR
STARTCHAR thorn
ENCODING 254
SWIDTH 556 0
DWIDTH 27 0
BBX 22 42 3 -9
BITMAP
780000
F80000
FC0000
FC0000
FC0000
FC0000
FC0000
FC0000
FC0000
FFC000
FFFC00
FFFF00
FFFF80
FFFFC0
FCFFE0
FC0FF0
FC07F8
FC03F8
FC01FC
FC00FC
FC00FC
FC00FC
FC00FC
FC00FC
FC00FC
FC01FC
FC03FC
FC0FF8
FFFFF0
FFFFF0
FFFFE0
FFFF80
FFFE00
FC0000
FC0000
FC0000
FC0000
FC0000
FC0000
FC0000
FC0000
780000
ENDCHAR
STARTCHAR ydieresis
ENCODING 255
SWIDTH 500 0
DWIDTH 24 0
BBX 21 42 2 -9
BITMAP
1C0380
3E07C0
3F0FC0
3F0FC0
3E07C0
1C0380
000000
000000
000000
700070
F800F8
F800F8
F801F8
F801F8
FC01F8
FC01F8
FC01F0
FC03F0
7C03F0
7E03E0
7E07E0
3E07E0
3F07C0
3F0FC0
1F8F80
1F9F80
0FDF00
0FFF00
07FF00
03FE00
03FE00
01FC00
01F800
01F800
03F000
07F000
0FE000
1FC000
1F8000
1F8000
1F0000
0E0000
ENDCHAR
STARTCHAR .notdef
ENCODING -1
SWIDTH 500 0
DWIDTH 24 0
BBX 24 33 0 0
BITMAP
FFFFFF
FFFFFF
F0000F
F8001F
DC003B
DC003B
CE0073
C700E3
C700E3
C381C3
C1C383
C1C383
C0E703
C07E03
C07E03
C03C03
C03C03
C03C03
C07E03
C0E703
C0E703
C1C383
C381C3
C381C3
C700E3
CE0073
CE0073
DC003B
F8001F
F8001F
F0000F
FFFFFF
FFFFFF
ENDCHAR
STARTCHAR quoteright
ENCODING -1
SWIDTH 222 0
DWIDTH 11 0
BBX 9 13 1 20
BITMAP
0F00
1F80
1F80
1F80
3F00
3F00
7E00
7E00
7E00
FC00
FC00
F800
7000
ENDCHAR
STARTCHAR quoteleft
ENCODING -1
SWIDTH 222 0
DWIDTH 11 0
BBX 9 13 1 20
BITMAP
7000
F800
FC00
FC00
FC00
7E00
7E00
3F00
3F00
1F00
1F80
1F80
0F00
ENDCHAR
STARTCHAR fraction
ENCODING -1
SWIDTH 167 0
DWIDTH 8 0
BBX 24 33 -8 0
BITMAP
00000E
00001F
00003F
00003F
00007F
0000FE
0000FC
0001F8
0003F8
0003F0
0007E0
000FE0
000FC0
001F80
003F80
007F00
007E00
00FE00
01FC00
01F800
03F000
07F000
07E000
0FC000
1FC000
1F8000
3F0000
7F0000
FE0000
FC0000
FC0000
F80000
700000
ENDCHAR
STARTCHAR florin
ENCODING -1
SWIDTH 611 0
DWIDTH 29 0
BBX 29 42 0 -9
BITMAP
00000FE0
00003FF8
0000FFF8
0000FFF8
0001FFF8
0001FFF0
0003FC00
0003F800
0003F000
0007F000
0007F000
0007E000
01FFFF00
03FFFF80
03FFFFC0
03FFFFC0
03FFFF80
01FFFF00
000FC000
001FC000
001FC000
001FC000
001F8000
001F8000
001F8000
003F8000
003F8000
003F8000
003F0000
003F0000
003F0000
007F0000
007F0000
007E0000
00FE0000
01FE0000
7FFC0000
FFFC0000
FFF80000
FFF00000
FFE00000
7F800000
ENDCHAR
STARTCHAR quotedblleft
ENCODING -1
SWIDTH 389 0
DWIDTH 19 0
BBX 18 13 0 20
BITMAP
783C00
7C7E00
FC7E00
FE7F00
7E3F00
7E3F00
3F1F80
3F1F80
1F8F80
1F8FC0
0F8FC0
0F87C0
0783C0
ENDCHAR
STARTCHAR guilsinglleft
ENCODING -1
SWIDTH 333 0
DWIDTH 16 0
BBX 9 19 4 3
BITMAP
0700
0F80
1F80
1F80
3F00
3F00
7E00
7E00
FC00
FC00
FC00
7E00
7E00
3F00
3F00
1F80
1F80
0F80
0700
ENDCHAR
STARTCHAR guilsinglright
ENCODING -1
SWIDTH 333 0
DWIDTH 16 0
BBX 9 19 3 3
BITMAP
7000
F800
F800
FC00
7E00
7E00
3F00
3F00
1F80
1F80
1F80
3F00
3F00
7E00
7E00
FC00
FC00
F800
7000
ENDCHAR
STARTCHAR fi
ENCODING -1
SWIDTH 611 0
DWIDTH 29 0
BBX 26 33 0 0
BITMAP
007FFE00
01FFFF80
03FFFF80
07FFFFC0
07FFFFC0
0FF80FC0
0FC00F80
0FC00700
0FC00000
7FFFFF00
FFFFFF80
FFFFFFC0
FFFFFFC0
FFFFFFC0
0FC00FC0
0FC00FC0
0FC00FC0
0FC00FC0
0FC00FC0
0FC00FC0
0FC00FC0
0FC00FC0
0FC00FC0
0FC00FC0
0FC00FC0
0FC00FC0
0FC00FC0
0FC00FC0
0FC00FC0
0FC00FC0
0FC00F80
07C00F80
07800700
ENDCHAR
STARTCHAR fl
ENCODING -1
SWIDTH 611 0
DWIDTH 29 0
BBX 26 33 0 0
BITMAP
007FFE00
01FFFF80
07FFFF80
07FFFF80
07FFFFC0
0FF00FC0
0FC00FC0
0FC00FC0
0FC00FC0
7FFF0FC0
FFFF8FC0
FFFF8FC0
FFFF8FC0
FFFF0FC0
0FC00FC0
0FC00FC0
0FC00FC0
0FC00FC0
0FC00FC0
0FC00FC0
0FC00FC0
0FC00FC0
0FC00FC0
0FC00FC0
0FC00FC0
0FC00FC0
0FC00FC0
0FC00FC0
0FC00FC0
0FC00FC0
0FC00F80
07C00F80
07800700
ENDCHAR
STARTCHAR endash
ENCODING -1
SWIDTH 500 0
DWIDTH 24 0
BBX 24 4 0 10
BITMAP
FFFFFF
FFFFFF
FFFFFF
FFFFFF
ENDCHAR
STARTCHAR dagger
ENCODING -1
SWIDTH 444 0
DWIDTH 21 0
BBX 16 33 3 0
BITMAP
0380
07C0
07C0
07E0
07C0
07C0
07C0
7FFE
FFFF
FFFF
FFFF
7FFE
07C0
07C0
07C0
07C0
07C0
07C0
07C0
07C0
07C0
07E0
07E0
07E0
07E0
07E0
0FE0
0FE0
0FE0
0FE0
07E0
07C0
0380
ENDCHAR
STARTCHAR daggerdbl
ENCODING -1
SWIDTH 444 0
DWIDTH 21 0
BBX 16 33 3 0
BITMAP
0380
07C0
07C0
07E0
07C0
07C0
07C0
7FFE
FFFF
FFFF
FFFF
7FFE
07E0
07E0
07E0
07E0
07E0
07E0
07E0
07E0
07C0
7FFE
FFFF
FFFF
FFFF
7FFE
07C0
07C0
07E0
07E0
07C0
07C0
0380
ENDCHAR
STARTCHAR bullet
ENCODING -1
SWIDTH 500 0
DWIDTH 24 0
BBX 16 17 4 8
BITMAP
07E0
1FF8
3FFC
7FFE
7FFE
FFFF
FFFF
FFFF
FFFF
FFFF
FFFF
FFFF
7FFE
3FFC
1FF8
0FF0
0100
ENDCHAR
STARTCHAR quotesinglbase
ENCODING -1
SWIDTH 222 0
DWIDTH 11 0
BBX 9 13 1 -5
BITMAP
0F00
1F80
1F80
3F80
3F00
3F00
7E00
7E00
FC00
FC00
F800
F800
7000
ENDCHAR
STARTCHAR quotedblbase
ENCODING -1
SWIDTH 389 0
DWIDTH 19 0
BBX 17 13 1 -5
BITMAP
1F0F80
1F0F80
3F1F80
3F1F80
3F3F80
7E3F00
7E3F00
FC7E00
FC7E00
F87C00
F8FC00
F07800
707000
ENDCHAR
STARTCHAR quotedblright
ENCODING -1
SWIDTH 389 0
DWIDTH 19 0
BBX 17 13 1 20
BITMAP
0E0700
1F0F80
3F1F80
3F1F80
3F1F80
7E3F00
7E3F00
7E3E00
FC7E00
FC7E00
F87C00
F87C00
F07800
ENDCHAR
STARTCHAR ellipsis
ENCODING -1
SWIDTH 1000 0
DWIDTH 48 0
BBX 38 7 5 0
BITMAP
7800780078
FC00FC00FC
FC00FC00FC
FC00FC00FC
FC00FC00FC
FC00FC00FC
7800780078
ENDCHAR
STARTCHAR perthousand
ENCODING -1
SWIDTH 1000 0
DWIDTH 48 0
BBX 48 33 0 0
BITMAP
07C001800000
1FF003C00000
3FF807C00000
7FFC07C00000
7FFC0F800000
FC7E0F800000
F83E1F000000
F83E1F000000
F83E3E000000
F83E7C000000
F83E7C000000
FC7EF8000000
7FFCF8000000
7FFDF0000000
3FF9F0000000
1FF3E0000000
07C7C3E003E0
0007CFF80FF8
000F9FFC1FFC
000FBFFC3FFE
001F3FFE3FFE
001F7E3E7E3E
003E7C1F7C1F
007C7C1F7C1F
007C7C1F7C1F
00F87C1F7C1F
00F87C3F7C1F
01F07E3E7E3E
01F03FFE3FFE
03E03FFC3FFE
03C01FFC1FFC
03C00FF80FF8
038003E003E0
ENDCHAR
STARTCHAR circumflex
ENCODING -1
SWIDTH 278 0
DWIDTH 13 0
BBX 15 7 -1 26
BITMAP
03C0
07E0
0FF0
1EF8
3E78
7C7C
F83E
ENDCHAR
STARTCHAR tilde
ENCODING -1
SWIDTH 278 0
DWIDTH 13 0
BBX 16 6 -1 27
BITMAP
1803
3F87
7FFE
FFFE
C3FC
8030
ENDCHAR
STARTCHAR breve
ENCODING -1
SWIDTH 278 0
DWIDTH 13 0
BBX 15 7 -1 26
BITMAP
C002
E006
F01E
7FFC
7FFC
3FF8
0FE0
ENDCHAR
STARTCHAR dotaccent
ENCODING -1
SWIDTH 278 0
DWIDTH 13 0
BBX 6 6 4 28
BITMAP
70
F8
FC
FC
F8
70
ENDCHAR
STARTCHAR ring
ENCODING -1
SWIDTH 278 0
DWIDTH 13 0
BBX 10 10 2 27
BITMAP
3E00
7F00
FF80
E1C0
C1C0
C1C0
E1C0
FF80
7F00
3E00
ENDCHAR
STARTCHAR hungarumlaut
ENCODING -1
SWIDTH 278 0
DWIDTH 13 0
BBX 19 11 -3 25
BITMAP
0301C0
0783E0
0FC3E0
0F87E0
1F0FC0
3E1F80
3E1F00
7C3E00
F87C00
F07800
603000
ENDCHAR
STARTCHAR ogonek
ENCODING -1
SWIDTH 278 0
DWIDTH 13 0
BBX 12 11 1 -9
BITMAP
00E0
0780
1E00
3C00
7800
F000
F000
F020
7DF0
7FE0
1F80
ENDCHAR
STARTCHAR caron
ENCODING -1
SWIDTH 278 0
DWIDTH 13 0
BBX 15 7 -1 26
BITMAP
F81E
7C3E
3C7C
3EF8
1FF0
0FE0
07C0
ENDCHAR
STARTCHAR emdash
ENCODING -1
SWIDTH 1000 0
DWIDTH 48 0
BBX 48 4 0 10
BITMAP
FFFFFFFFFFFF
FFFFFFFFFFFF
FFFFFFFFFFFF
FFFFFFFFFFFF
ENDCHAR
STARTCHAR Lslash
ENCODING -1
SWIDTH 444 0
DWIDTH 21 0
BBX 23 33 -1 0
BITMAP
038000
07C000
07C000
0FE000
0FE000
0FE000
0FE000
0FE000
0FE000
0FE000
0FE000
0FE780
0FFFC0
0FFFC0
0FFFC0
0FFF80
3FFE00
FFF800
FFE000
FFE000
FFE000
7FE000
0FE000
0FE000
0FE000
0FE000
0FE000
0FFFF8
0FFFFC
0FFFFE
07FFFE
07FFFE
03FFFC
ENDCHAR
STARTCHAR OE
ENCODING -1
SWIDTH 1000 0
DWIDTH 48 0
BBX 44 33 2 0
BITMAP
001FC07FFFE0
00FFF8FFFFF0
03FFFEFFFFF0
07FFFFFFFFF0
0FFFFFFFFFF0
1FFFFFFC0000
3FE01FFC0000
3F800FFC0000
7F0007FC0000
7F0003FC0000
7E0003FFFFE0
FE0001FFFFF0
FC0001FFFFF0
FC0001FFFFF0
FC0001FFFFE0
FC0001FC0000
FC0001FC0000
FC0001FC0000
FC0001FC0000
FC0001FC0000
FE0001FC0000
FE0003FC0000
7E0003FC0000
7F0007FC0000
7F8007FC0000
3F800FFC0000
1FE03FFC0000
1FFDFFFC0000
0FFFFFFFFFF0
07FFFFFFFFF0
03FFFEFFFFF0
00FFF8FFFFF0
001FC07FFFE0
ENDCHAR
STARTCHAR dotlessi
ENCODING -1
SWIDTH 278 0
DWIDTH 13 0
BBX 6 24 4 0
BITMAP
70
F8
FC
FC
FC
FC
FC
FC
FC
FC
FC
FC
FC
FC
FC
FC
FC
FC
FC
FC
FC
FC
F8
70
ENDCHAR
STARTCHAR lslash
ENCODING -1
SWIDTH 278 0
DWIDTH 13 0
BBX 15 33 -1 0
BITMAP
0380
07C0
07E0
07E0
07E0
07E0
07E0
07E0
07E0
07E0
07E4
07FE
07FE
07FE
0FF8
3FE0
FFE0
FFE0
FFE0
67E0
07E0
07E0
07E0
07E0
07E0
07E0
07E0
07E0
07E0
07E0
07E0
07C0
0380
ENDCHAR
STARTCHAR oe
ENCODING -1
SWIDTH 833 0
DWIDTH 40 0
BBX 39 24 1 0
BITMAP
00FC007E00
07FF81FFC0
0FFFC7FFE0
1FFFEFFFF0
3FFFFFFFF8
3FC7FF81F8
7F01FF00FC
7E01FE00FC
FE00FE007C
FC00FFFFFC
FC00FFFFFC
FC007FFFFC
FC007FFFFC
FC007E0000
FC00FE0000
FC00FE0000
7E01FF0000
7F01FF8000
3FC7FFE000
3FFFFFFFFC
1FFFEFFFFC
0FFFC7FFFE
07FF81FFFC
00FE007FFC
ENDCHAR
STARTCHAR trademark
ENCODING -1
SWIDTH 1000 0
DWIDTH 48 0
BBX 44 20 2 13
BITMAP
FFFF0FF007F0
FFFF0FF00FF0
FFFF0FF00FF0
FFFF0FF81FF0
03E00FF81FF0
03E00FF81FF0
03E00FBC3FF0
03E00FBC3DF0
03E00FBE3DF0
03E00F9E7DF0
03E00F9E79F0
03E00F9FF9F0
03E00F8FF1F0
03E00F8FF1F0
03E00F8FF1F0
03E00F87E1F0
03E00F87E1F0
03E00F87E1F0
03E00F83C1F0
03E00F83C1F0
ENDCHAR
STARTCHAR minus
ENCODING -1
SWIDTH 600 0
DWIDTH 29 0
BBX 25 5 2 10
BITMAP
FFFFFF80
FFFFFF80
FFFFFF80
FFFFFF80
FFFFFF80
ENDCHAR
STARTCHAR Scaron
ENCODING -1
SWIDTH 611 0
DWIDTH 29 0
BBX 26 41 1 0
BITMAP
01F07C00
00F0F800
0079F000
007DE000
003FC000
001F8000
000F0000
00000000
01FFFC00
0FFFFE00
1FFFFF00
3FFFFF00
7FFFFE00
7FFFFC00
7E000000
7E000000
7F000000
7FC00000
7FFE0000
3FFFE000
3FFFF800
0FFFFE00
03FFFF00
007FFF80
0001FF80
00003FC0
00001FC0
00000FC0
00000FC0
00000FC0
00000FC0
00000FC0
00001FC0
00001FC0
00007F80
3FFFFF80
7FFFFF00
FFFFFE00
FFFFFC00
7FFFF000
7FFFC000
ENDCHAR
STARTCHAR Ydieresis
ENCODING -1
SWIDTH 556 0
DWIDTH 27 0
BBX 25 41 1 0
BITMAP
03807000
07C0F800
07C1F800
07C1F800
07C0F800
03807000
00000000
00000000
70000F00
F8001F80
FC001F80
FC003F80
FE003F80
FE003F00
7E007F00
7F007F00
3F80FE00
3F80FE00
1FC1FC00
1FE3F800
0FF7F800
07FFF000
03FFE000
01FFC000
00FF8000
007F0000
007F0000
007F0000
007F0000
007F0000
007F0000
007F0000
007F0000
007F0000
007F0000
007F0000
007F0000
007F0000
007E0000
007E0000
003C0000
ENDCHAR
STARTCHAR Zcaron
ENCODING -1
SWIDTH 500 0
DWIDTH 24 0
BBX 22 41 1 0
BITMAP
0F83E0
07C7C0
03C780
01EF00
00FF00
00FE00
007C00
000000
1FFFF0
3FFFF8
3FFFFC
3FFFFC
3FFFFC
1FFFF8
0001F8
0001F8
0003F8
0003F0
0007F0
000FE0
001FE0
003FC0
007F80
00FF00
01FF00
03FE00
07FC00
0FF000
1FE000
3FC000
3F8000
7F0000
7F0000
7E0000
FC0000
FFFFF0
FFFFFC
FFFFFC
FFFFFC
7FFFFC
3FFFF8
ENDCHAR
STARTCHAR scaron
ENCODING -1
SWIDTH 500 0
DWIDTH 24 0
BBX 22 33 1 0
BITMAP
0F03C0
0F87C0
07CF80
03CF00
01FE00
00FC00
00FC00
000000
000000
07FFE0
1FFFF0
3FFFF0
7FFFF0
7FFFE0
7E0000
7E0000
7F0000
7FFC00
3FFF80
3FFFE0
0FFFF0
01FFF8
0007F8
0001FC
0000FC
0000FC
0001FC
0003F8
7FFFF8
FFFFF0
FFFFF0
FFFFC0
7FFF00
ENDCHAR
STARTCHAR zcaron
ENCODING -1
SWIDTH 444 0
DWIDTH 21 0
BBX 20 33 1 0
BITMAP
3E0780
1E0F80
0F1F00
0FBE00
07FC00
03F800
01F000
000000
000000
3FFFC0
7FFFE0
7FFFE0
7FFFE0
3FFFE0
000FE0
001FC0
003FC0
007F80
00FF00
01FE00
07FC00
0FF800
1FF000
3FC000
3F8000
7F0000
FE0000
FE0000
FFFFE0
FFFFE0
FFFFF0
FFFFE0
7FFFE0
ENDCHAR
STARTCHAR Delta
ENCODING -1
SWIDTH 709 0
DWIDTH 34 0
BBX 32 33 1 0
BITMAP
000FF000
000FF000
000FF800
001FF800
001FF800
003FFC00
003EFC00
003E7E00
007E7E00
007C7E00
00FC3F00
00F83F00
01F81F80
01F81F80
01F01FC0
03F00FC0
03E00FC0
07E007E0
07E007E0
07C007F0
0FC003F0
0F8003F0
1F8001F8
1F8001F8
1F0001FC
3F0000FC
3E0000FC
7E00007E
7C00007E
FFFFFFFF
FFFFFFFF
FFFFFFFF
FFFFFFFF
ENDCHAR
STARTCHAR Omega
ENCODING -1
SWIDTH 786 0
DWIDTH 38 0
BBX 33 33 2 0
BITMAP
0007F80000
003FFF0000
00FFFFC000
03FFFFE000
07FFFFF000
0FF807F800
0FE001FC00
1FC000FE00
3F80007E00
3F00007F00
3F00003F00
7F00003F00
7E00003F80
7E00001F80
7E00001F80
7E00001F80
7E00001F80
7E00001F80
7E00001F00
7E00001F00
3E00003F00
3F00003E00
1F00003E00
1F00007C00
0F80007C00
078000F800
07C001F000
03E001E000
00F007C000
FFFC0FFF80
FFFC0FFF80
FFFC0FFF80
FFFC0FFF80
ENDCHAR
STARTCHAR pi
ENCODING -1
SWIDTH 641 0
DWIDTH 31 0
BBX 30 24 0 0
BITMAP
1FFFFFFC
FFFFFFFC
FFFFFFFC
7FFFFFFC
7FFFFFFC
03F00FC0
03F00FC0
03F00FC0
03F00FC0
03F00FC0
03F00FC0
03E00FC0
03E00FC0
07E00FC0
07E00FC0
07E00FC0
07E00FC0
07C00FC0
0FC00FC0
0FC00FC0
0FC00FC0
0FC00FC0
1F800FC0
1F800FC0
ENDCHAR
STARTCHAR Euro
ENCODING -1
SWIDTH 611 0
DWIDTH 29 0
BBX 28 33 1 0
BITMAP
001FFFC0
007FFFE0
00FFFFE0
01FFFFE0
03FFFFE0
07FFFFC0
07F80000
0FF00000
0FE00000
7FFFF000
FFFFF800
FFFFF800
FFFFF800
7FFFE000
1FC00000
1FC00000
7FFFF000
FFFFF800
FFFFF800
FFFFF800
7FFFE000
07F00000
07F80000
03FC0000
03FE0000
01FF8000
00FFF000
007FFFC0
003FFFE0
000FFFF0
0007FFF0
0001FFE0
00001FC0
ENDCHAR
STARTCHAR estimated
ENCODING -1
SWIDTH 844 0
DWIDTH 41 0
BBX 37 33 2 0
BITMAP
0003FE0000
003C03C000
00F0007000
01C0001C00
0700000E00
0E00000700
1C00000380
1C000003C0
3C000003E0
7C000003E0
7C000003F0
FC000003F0
FC000003F0
FC000003F8
FC000003F8
FC000003F8
FFFFFFFFF8
FC00000000
FC00000000
FC00000000
FC00000000
FC00000000
7C00000000
7C00000000
3C00000000
1C00000000
1C00000000
0E00000700
0700000E00
01C0001C00
00E0007000
003C03C000
0003FE0000
ENDCHAR
STARTCHAR partialdiff
ENCODING -1
SWIDTH 610 0
DWIDTH 29 0
BBX 25 37 2 0
BITMAP
03FC0000
0FFF8000
3FFFC000
3FFFF000
3FFFF800
1803F800
1001FC00
0000FE00
00007E00
00007E00
00003F00
00003F00
00001F00
00001F80
00FC1F80
07FF1F80
0FFF9F80
1FFFDF80
3FEFFF80
7F80FF80
7F007F80
7E003F80
FC003F80
FC003F00
FC003F00
FC003F00
FC003F00
FC007E00
FC007E00
FC00FC00
7E01FC00
7F03F800
3FFFF000
1FFFE000
1FFFC000
07FF8000
01FC0000
ENDCHAR
STARTCHAR product
ENCODING -1
SWIDTH 767 0
DWIDTH 37 0
BBX 35 37 1 -5
BITMAP
FFFFFFFFE0
FFFFFFFFE0
FFFFFFFFE0
FFFFFFFFE0
FFFFFFFFE0
03E001F800
03E001F800
03E001F800
03E001F800
03E001F800
03E001F800
03E001F800
03E001F800
03E001F800
03E001F800
03E001F800
03E001F800
03E001F800
03E001F800
03E001F800
03E001F800
03E001F800
03E001F800
03E001F800
03E001F800
03E001F800
03E001F800
03E001F800
03E001F800
03E001F800
03E001F800
03E001F800
03E001F800
03E001F800
03E001F800
03E001F800
03E001F800
ENDCHAR
STARTCHAR summation
ENCODING -1
SWIDTH 602 0
DWIDTH 29 0
BBX 27 36 1 -4
BITMAP
7FFFFFC0
7FFFFFC0
7FFFFFC0
7FFFFFC0
7FFFFFC0
3F800000
1FC00000
0FE00000
07F00000
07F80000
03F80000
01FC0000
00FE0000
007F0000
003F8000
001FC000
000FE000
000FE000
0007E000
000FC000
001F8000
003F0000
007E0000
00FC0000
01F80000
03F00000
07E00000
07E00000
0FC00000
1F800000
3F000000
7FFFFFE0
FFFFFFE0
FFFFFFE0
FFFFFFE0
FFFFFFE0
ENDCHAR
STARTCHAR uni2219
ENCODING -1
SWIDTH 305 0
DWIDTH 15 0
BBX 7 7 4 9
BITMAP
78
FC
FE
FE
FE
FC
78
ENDCHAR
STARTCHAR radical
ENCODING -1
SWIDTH 626 0
DWIDTH 30 0
BBX 28 45 2 -7
BITMAP
000000F0
000000F0
000000F0
000000F0
000001E0
000001E0
000001E0
000001E0
000003C0
000003C0
000003C0
000003C0
00000780
00000780
00000780
00000780
00000F00
00000F00
00000F00
00001F00
07001E00
1F001E00
FF801E00
FF803C00
FFC03C00
87C03C00
07C03C00
03E07800
03E07800
03E07800
01F07800
01F0F000
01F0F000
00F8F000
00F8F000
007DE000
007DE000
007DE000
003DE000
003FC000
001FC000
001FC000
001FC000
000F8000
000F8000
ENDCHAR
STARTCHAR infinity
ENCODING -1
SWIDTH 799 0
DWIDTH 38 0
BBX 34 16 2 5
BITMAP
07E001F800
0FF803FE00
3FFE0FFF00
3C1F1F0F80
780FBC0780
7007F803C0
7003F003C0
F001E001C0
F001E001C0
F003F003C0
7007F803C0
780F3E0780
3C3E1F0F80
3FFC0FFF00
0FF807FE00
07E001F800
ENDCHAR
STARTCHAR integral
ENCODING -1
SWIDTH 395 0
DWIDTH 19 0
BBX 17 48 1 -8
BITMAP
000F80
007F80
00FF80
00FF80
01F800
01F000
03E000
03E000
03E000
03E000
03E000
03E000
03E000
03E000
03E000
03E000
03E000
03E000
03E000
03E000
03E000
03E000
03E000
03E000
03E000
03E000
03E000
03E000
03E000
03E000
03E000
03E000
03E000
03E000
01E000
01E000
01E000
03E000
03E000
03E000
03E000
03E000
07C000
8FC000
FFC000
FF8000
FF0000
FC0000
ENDCHAR
STARTCHAR approxequal
ENCODING -1
SWIDTH 590 0
DWIDTH 28 0
BBX 24 16 2 5
BITMAP
0FE002
1FF807
3FFC0F
787F3E
F01FFC
600FF8
0001F0
000000
000000
0FE002
1FF807
3FFC0F
787F1E
F01FFC
600FF8
0001F0
ENDCHAR
STARTCHAR notequal
ENCODING -1
SWIDTH 590 0
DWIDTH 28 0
BBX 24 24 2 1
BITMAP
0001E0
0001C0
0001C0
000380
000380
FFFFFF
FFFFFF
FFFFFF
000E00
001E00
001C00
001C00
003800
003800
007000
FFFFFF
FFFFFF
FFFFFF
01E000
01C000
01C000
038000
038000
010000
ENDCHAR
STARTCHAR lessequal
ENCODING -1
SWIDTH 590 0
DWIDTH 28 0
BBX 24 30 2 0
BITMAP
000001
000007
00003F
0000FF
0003FC
000FF0
003FC0
00FE00
03F800
0FE000
7F8000
7E0000
700000
7C0000
7F0000
1FE000
07F800
01FE00
003F80
000FF0
0003FC
0000FF
00003F
00000F
000003
000000
000000
FFFFFF
FFFFFF
FFFFFF
ENDCHAR
STARTCHAR greaterequal
ENCODING -1
SWIDTH 590 0
DWIDTH 28 0
BBX 23 30 3 0
BITMAP
800000
E00000
F80000
FE0000
7F8000
1FE000
03FC00
00FF00
003FC0
000FF0
0001FC
00007E
00001E
00007E
0001FE
0007F0
001FC0
00FF00
03FC00
0FF000
3FC000
FF0000
F80000
E00000
800000
000000
000000
FFFFFE
FFFFFE
FFFFFE
ENDCHAR
STARTCHAR lozenge
ENCODING -1
SWIDTH 626 0
DWIDTH 30 0
BBX 24 36 3 -2
BITMAP
007E00
007E00
00FF00
00FF00
01FF80
01E7C0
03E7C0
07C3E0
07C3E0
0F81F0
0F81F0
1F00F8
1F00F8
3E007C
7C007E
7C003E
F8001F
F8001F
F8001F
F8001F
7C003E
7E003E
3E007C
1F00F8
1F00F8
0F81F0
0F81F0
07C3E0
07C3E0
03E7C0
03E780
01FF80
00FF00
00FF00
007E00
007E00
ENDCHAR
STARTCHAR uni02C9
ENCODING -1
SWIDTH 278 0
DWIDTH 13 0
BBX 15 4 -1 29
BITMAP
7FFE
FFFE
FFFE
7FFE
ENDCHAR
STARTCHAR uni03A9
ENCODING -1
SWIDTH 786 0
DWIDTH 38 0
BBX 33 33 2 0
BITMAP
0007F80000
003FFF0000
00FFFFC000
03FFFFE000
07FFFFF000
0FF807F800
0FE001FC00
1FC000FE00
3F80007E00
3F00007F00
3F00003F00
7F00003F00
7E00003F80
7E00001F80
7E00001F80
7E00001F80
7E00001F80
7E00001F80
7E00001F00
7E00001F00
3E00003F00
3F00003E00
1F00003E00
1F00007C00
0F80007C00
078000F800
07C001F000
03E001E000
00F007C000
FFFC0FFF80
FFFC0FFF80
FFFC0FFF80
FFFC0FFF80
ENDCHAR
STARTCHAR afii61289
ENCODING -1
SWIDTH 552 0
DWIDTH 27 0
BBX 23 36 2 0
BITMAP
007E00
01FF80
03FFC0
03FFE0
07E3E0
07C1E0
0FC1E0
0F80F0
0F80F0
0F81F0
0F81E0
0F81E0
0F83E0
0F83C0
0F87C0
0F8780
0F8F80
0F9F00
0FBE00
0FFC00
0FFC00
0FF800
0FF000
0FC000
3F8000
7F8000
FF8000
FF8008
EFC00C
0FC01E
0FE07E
07FFFC
07FFF8
03FFF0
01FFE0
007F00
ENDCHAR
STARTCHAR uni03BC
ENCODING -1
SWIDTH 556 0
DWIDTH 27 0
BBX 21 33 3 -9
BITMAP
7800F0
F801F0
FC01F8
FC01F8
FC01F8
FC01F8
FC01F8
FC01F8
FC01F8
FC01F8
FC01F8
FC01F8
FC01F8
FC01F8
FC01F8
FC03F8
FC03F8
FE07F8
FF1FF8
FFFFF8
FFFFF8
FFFFF8
FFFDF0
FFF0F0
FC0000
FC0000
FC0000
FC0000
FC0000
FC0000
FC0000
F80000
780000
ENDCHAR
STARTCHAR uni2215
ENCODING -1
SWIDTH 167 0
DWIDTH 8 0
BBX 24 33 -8 0
BITMAP
00000E
00001F
00003F
00003F
00007F
0000FE
0000FC
0001F8
0003F8
0003F0
0007E0
000FE0
000FC0
001F80
003F80
007F00
007E00
00FE00
01FC00
01F800
03F000
07F000
07E000
0FC000
1FC000
1F8000
3F0000
7F0000
FE0000
FC0000
FC0000
F80000
700000
ENDCHAR
ENDFONT
